<?xml version="1.0" encoding="UTF-8" standalone="no"?>
<svg
   width="1100"
   height="539"
   version="1.1"
   id="svg132"
   sodipodi:docname="mips (1).svg"
   xmlns:inkscape="http://www.inkscape.org/namespaces/inkscape"
   xmlns:sodipodi="http://sodipodi.sourceforge.net/DTD/sodipodi-0.dtd"
   xmlns="http://www.w3.org/2000/svg"
   xmlns:svg="http://www.w3.org/2000/svg">
  <defs
     id="defs132" />
  <sodipodi:namedview
     id="namedview132"
     pagecolor="#ffffff"
     bordercolor="#000000"
     borderopacity="0.25"
     inkscape:showpageshadow="2"
     inkscape:pageopacity="0.0"
     inkscape:pagecheckerboard="0"
     inkscape:deskcolor="#d1d1d1">
    <inkscape:page
       x="0"
       y="0"
       width="1100"
       height="539"
       id="page2"
       margin="0"
       bleed="0" />
  </sodipodi:namedview>
  <path
     fill="#020201"
     d="m 0,0 h 1099.06 c 0.49,0.765327 0.76,1.43246 0.84,2.33642 0.66,7.10295 0.1,14.79298 0.1,21.94448 l 0.01,44.9577 0.01,143.7564 v 79.062 c -0.01,5.847 0.87,23.161 -0.2,27.875 -0.13,0.543 -0.32,1.063 -0.52,1.58 l -0.04,1.641 c 1.05,2.65 0.97,4.869 0.07,7.551 l -0.07,1.632 c 0.53,1.162 0.67,2.102 0.71,3.371 0.35,13.393 0.05,26.865 0.05,40.268 v 77.207 c 0,10.197 1.12,61.757 -0.67,67.079 l -0.09,1.644 c 1.03,2.477 0.97,4.442 0.02,6.935 l 0.04,1.59 c 0.87,2.312 1.17,5.551 0.14,7.865 -0.14,0.313 -0.21,0.388 -0.4,0.705 H 0 Z"
     id="path1" />
  <path
     fill="#fefefe"
     d="m 226.529,332.1 c 1.272,0.156 2.059,0.119 3.134,0.897 0.681,8.766 0.151,17.87 0.128,26.671 l -0.052,48.635 -2.528,-0.384 c -0.171,-0.182 -0.691,-0.616 -0.77,-0.819 -0.447,-1.159 0.086,-68.159 0.088,-75 z"
     id="path2" />
  <path
     fill="#fefefe"
     d="m 499.436,173.079 c 7.58,-1.535 23.299,-0.266 31.838,-0.23 4.143,0.017 8.341,-0.502 12.461,-0.107 l 0.056,1.029 c 0.443,1.347 1.011,2.585 0.426,3.978 -2.452,1.152 -40.873,0.897 -44.258,0.281 -0.646,-1.344 -0.476,-3.457 -0.523,-4.951 z"
     id="path3" />
  <path
     fill="#fefefe"
     d="m 916.241,323.452 c 2.52,-0.162 4.049,1.466 6.398,2.089 0.521,-0.577 0.649,-1.128 0.847,-1.856 l 0.081,-0.306 c 4.094,-1.139 44.332,-0.471 51.686,-0.31 1.584,0.035 3.78,-0.244 4.872,0.898 0.114,1.508 -0.296,2.452 -0.893,3.784 0.391,0.69 0.61,1.356 0.837,2.108 l -0.603,0.65 c -6.665,0.912 -14.246,0.222 -21.008,0.212 l -42.541,0.006 c 1.333,-2.279 0.921,-4.83 0.324,-7.275 z"
     id="path4" />
  <path
     fill="#fefefe"
     d="m 545.647,346.51 c 5.29,-0.691 11.027,-0.264 16.373,-0.265 0.369,0.592 0.676,1.229 0.803,1.92 0.675,3.655 0.732,25.974 -0.816,28.45 -3.155,1.21 -9.085,0.39 -12.569,0.361 -0.83,-1.542 -2.103,-2.406 -3.473,-3.439 0.64,-5.954 1.328,-21.507 -0.318,-27.027 z"
     id="path5" />
  <path
     fill="#fefefe"
     d="m 545.266,179.317 44.286,-0.022 c 1.274,2.211 1.153,8.97 0.549,11.515 -0.127,0.532 -0.438,0.992 -0.788,1.403 l -43.905,0.015 c 0.29,-0.437 0.54,-0.901 0.643,-1.421 0.569,-2.862 0.776,-9.027 -0.785,-11.49 z"
     id="path6" />
  <path
     fill="#fefefe"
     d="m 735.361,123.744 c 4.244,-0.108 8.792,-0.365 12.976,0.479 4.696,0.946 8.506,3.686 11.083,7.709 2.615,4.081 3.646,9.231 2.573,13.98 -0.733,3.245 -2.534,6.615 -5.391,8.433 -0.112,0.651 -0.496,0.996 -0.947,1.438 -5.001,4.906 -14.431,3.884 -20.958,3.877 1.93,-3.417 1.51,-31.068 0.664,-35.916 z"
     id="path7" />
  <path
     fill="#fefefe"
     d="m 326.808,346.249 c 1.147,0.101 2.328,0.202 3.425,0.575 2,0.679 3.864,2.042 4.752,4.008 1.78,3.942 1.827,40.291 0.148,44.406 -1.086,2.661 -3.45,3.796 -5.975,4.799 -1.664,-0.085 -3.233,-0.201 -4.78,-0.867 -1.891,-0.815 -3.344,-2.186 -4.089,-4.123 -1.624,-4.216 -1.67,-40.131 0.104,-43.983 1.267,-2.752 3.717,-3.836 6.415,-4.815 z"
     id="muxRegDst" />
  <path
     fill="#fefefe"
     d="m 570.472,337.407 c 2.407,-0.452 4.663,-0.282 6.852,0.901 1.701,0.919 2.925,2.555 3.476,4.39 1.54,5.136 1.708,40.065 -0.558,44.036 -1.211,2.124 -3.158,3.016 -5.425,3.606 -0.156,0.095 -0.38,0.248 -0.566,0.31 -1.231,0.409 -3.926,0.137 -5.028,-0.576 -8.307,-5.371 -2.149,-37.614 -4.655,-47.562 2.115,-1.327 3.599,-3.668 5.904,-5.105 z"
     id="mux-aluSRC" />
  <path
     fill="#fefefe"
     d="m 838.678,31.9421 c 2.469,-0.3982 5.185,-0.5016 7.365,0.9214 1.644,1.0727 3.111,3.0186 3.476,4.96 1.135,6.0262 1.587,40.0637 -1.136,43.9197 -1.36,1.9259 -3.34,2.7436 -5.585,3.1192 -0.841,0.3954 -2.111,0.2346 -3.013,0.1141 -1.668,-0.2229 -3.167,-1.297 -4.114,-2.6605 -1.284,-1.8496 -1.977,-4.3569 -2.295,-6.5586 -0.936,-6.4672 -0.827,-32.0332 0.356,-38.0106 0.558,-2.8195 2.726,-4.2757 4.946,-5.8047 z"
     id="muxPC" />
  <path
     fill="#fefefe"
     d="m 976.918,356.201 c 2.819,-0.601 5.988,-0.643 8.485,1.013 1.429,0.947 2.354,2.431 2.69,4.094 0.15,0.348 0.288,0.698 0.398,1.061 1.332,4.383 1.131,39.305 -0.87,42.851 -1.146,2.03 -2.979,2.936 -5.131,3.563 -0.858,0.381 -1.577,0.45 -2.504,0.446 -1.876,-0.008 -3.367,-0.512 -4.673,-1.901 -1.76,-1.873 -2.588,-4.774 -2.991,-7.248 -1.163,-7.153 -0.55,-26.295 -0.127,-34.201 0.263,-4.922 1.121,-6.457 4.723,-9.678 z"
     id="path11" />
  <path
     fill="#f5fafb"
     d="m 978.316,389.486 c 1.192,-0.256 2.046,-0.611 3.24,-0.147 1.1,0.426 1.87,1.395 2.347,2.444 0.879,1.934 0.75,4.369 -0.036,6.316 -0.679,1.682 -1.437,1.951 -2.983,2.657 -0.507,0.21 -1.426,0.048 -1.99,0.028 -0.922,-0.738 -1.185,-1.096 -1.569,-2.216 -1.076,-3.136 -0.381,-6.203 0.991,-9.082 z"
     id="path12" />
  <path
     fill="#fefefe"
     d="m 793.476,50.1948 c 2.123,-0.2242 4.358,0.0252 6.198,1.1723 1.707,1.064 3.226,3.1164 3.632,5.0938 1.199,5.8447 1.438,39.8907 -1.211,43.7751 -1.448,2.123 -3.574,2.878 -5.994,3.332 -0.971,0.05 -1.938,0.076 -2.88,-0.198 -2.061,-0.599 -3.809,-1.834 -4.846,-3.7384 -2.233,-4.0979 -2.24,-39.1694 -0.651,-44.1491 0.88,-2.7579 3.325,-4.0715 5.752,-5.2877 z"
     id="path13" />
  <path
     fill="#f5fafb"
     d="m 793.013,56.0993 c 0.753,-0.2022 1.738,-0.5397 2.519,-0.4436 1.033,0.1269 2.178,1.1509 2.724,1.9828 1.203,1.8355 1.31,3.7975 0.801,5.8913 -0.45,1.8514 -1.414,2.4252 -2.932,3.3105 l -0.915,1.0054 -1.293,-0.2626 c -0.894,-0.737 -1.376,-1.3802 -1.796,-2.4476 -1.384,-3.5168 -0.538,-5.6956 0.892,-9.0362 z"
     id="path14" />
  <path
     fill="#fefefe"
     d="m 980.36,323.047 c 39.63,0.327 79.27,-0.369 118.9,0.106 1.05,2.65 0.97,4.869 0.07,7.551 l -119.174,0.019 c 0.218,-0.359 0.419,-0.694 0.573,-1.087 0.858,-2.183 0.612,-4.516 -0.369,-6.589 z"
     id="path15" />
  <path
     fill="#fefefe"
     d="m 481.085,172.971 c 3.843,-0.423 13.981,-1.049 17.423,0.08 l -0.022,6.295 45.244,-0.017 c 0.22,0.334 0.431,0.695 0.544,1.081 0.766,2.624 0.736,9.466 -0.623,11.8 -20.826,-0.276 -41.704,-0.103 -62.533,0.027 q 0.18,-9.633 -0.033,-19.266 z"
     id="path16" />
  <path
     fill="#fefefe"
     d="m 471.363,205.735 c 7.607,-0.142 70.652,-0.805 72.464,0.369 0.159,0.342 0.294,0.684 0.405,1.045 0.849,2.779 0.834,10.507 -0.603,12.943 -9.146,-0.471 -18.411,-0.189 -27.57,-0.192 q -22.219,-0.085 -44.438,0.107 c 0.035,-4.754 0.167,-9.531 -0.258,-14.272 z"
     id="path17" />
  <path
     fill="#fefefe"
     d="m 530.856,346.272 12.828,-0.036 c 1.357,2.352 1.471,25.003 0.454,27.418 -0.565,1.341 -2.214,1.83 -2.487,3.603 -0.413,2.688 1.186,3.006 2.562,4.827 0.593,4.832 1.363,28.226 -0.558,31.493 -3.003,1.316 -12.126,0.433 -15.801,0.417 0.418,-21.515 0.03,-43.135 0.028,-64.659 z"
     id="path18" />
  <path
     fill="#fefefe"
     d="m 300.968,328.014 c 8.098,0 16.202,0.056 24.299,-0.044 3.199,-0.04 7.649,-0.729 10.743,-0.149 1.181,0.221 2.154,0.967 3.093,1.679 l 0.42,0.321 c 1.856,-0.01 4.141,-1.456 5.83,-2.261 l 0.033,45.105 c -1.195,-0.647 -2.509,-1.439 -3.804,-1.857 -1.914,-0.617 -2.006,0.024 -3.365,0.711 l -0.209,-1.493 c -0.198,-7.096 1.73,-17.645 -3.619,-23.176 -1.6,-1.654 -3.668,-2.453 -5.959,-2.412 -2.978,0.053 -5.755,1.401 -7.778,3.559 -2.958,3.155 -3.029,6.363 -2.924,10.448 l -16.757,-0.091 z"
     id="path19" />
  <path
     fill="#fefefe"
     d="m 592.721,290.988 c 2.54,-0.161 5.073,-0.356 7.562,0.285 1.248,0.321 3.05,1.207 4.261,1.238 1.125,0.03 3.051,-1.197 3.786,-2.02 1.177,2.655 1.546,9.879 0.579,12.666 -0.082,0.237 -0.266,0.531 -0.382,0.736 2.092,1.736 13.362,15.698 13.642,17.859 0.02,0.155 0.028,0.31 0.042,0.465 -0.539,2.753 -11.065,16.808 -13.646,18.577 1.138,2.77 1.225,18.814 0.153,21.45 -0.194,0.476 -0.147,0.331 -0.35,0.736 -0.046,0.092 -0.088,0.186 -0.133,0.279 -1.153,-0.903 -2.11,-1.482 -3.479,-2.035 -0.804,0.166 -1.609,0.314 -2.385,0.586 -3.664,1.283 -6.444,1.299 -10.275,1.068 0.556,-0.899 0.796,-1.688 0.864,-2.745 0.851,-13.149 0.107,-26.82 0.096,-40.018 -0.007,-9.359 0.988,-19.941 -0.335,-29.127 z"
     id="path20" />
  <path
     fill="#fefefe"
     d="m 589.31,365.075 2.827,0.004 c 0.461,0.79 0.702,1.474 0.786,2.381 0.491,5.339 0.881,40.935 -0.146,44.917 -0.136,0.528 -0.366,1.014 -0.635,1.486 l -2.999,0.024 c -4.627,0.407 -9.583,0.082 -14.253,0.091 l -29.647,0.016 c 0.046,-0.094 0.09,-0.188 0.138,-0.28 2.241,-4.301 0.747,-17.784 0.664,-23.201 -0.05,-3.332 -0.303,-8.162 2.385,-10.624 2.191,-2.007 10.409,-1.072 13.476,-1.028 1.203,2.085 1.195,4.515 1.765,6.801 0.616,2.464 3.661,5.212 5.798,6.444 1.739,1.002 3.672,1.415 5.631,0.839 2.727,-0.802 4.996,-3.168 6.33,-5.599 2.841,-5.173 2.862,-16.655 1.173,-22.38 z"
     id="path21" />
  <path
     fill="#13b0e3"
     d="m 589.31,365.075 2.827,0.004 c 0.461,0.79 0.702,1.474 0.786,2.381 0.491,5.339 0.881,40.935 -0.146,44.917 -0.136,0.528 -0.366,1.014 -0.635,1.486 l -2.999,0.024 0.918,-1.341 c 0.472,-5.726 1.008,-44.746 -0.751,-47.471 z"
     id="path22" />
  <path
     fill="#fefefe"
     d="m 508.406,17.1499 c 37.994,0.4451 76.036,0.0641 114.034,0.0656 l 217.838,-0.0092 c 1.798,2.8337 0.889,9.0853 0.533,12.3823 -0.447,0.3973 -1.764,0.6095 -2.374,0.8722 -2.504,1.0785 -4.43,2.766 -6.294,4.7035 -0.137,2.3793 -0.056,6.453 -1.275,8.4593 l -16.743,-0.0185 c 0.182,-0.3439 0.346,-0.6557 0.476,-1.0221 1.016,-2.8694 0.752,-19.5674 -0.56,-22.184 l -204.986,0.0123 -67.626,-0.0404 c -10.446,-0.0024 -21.494,0.9538 -31.848,-0.1287 -1.137,-0.925 -0.979,-1.7169 -1.175,-3.0923 z"
     id="path23" />
  <path
     fill="#fefefe"
     d="m 593.265,179.282 122.321,0.042 c 1.134,2.323 1.098,9.079 0.308,11.56 -0.153,0.481 -0.388,0.913 -0.668,1.331 l -122.022,-0.002 c -0.588,-4.04 -0.349,-8.855 0.061,-12.931 z"
     id="path24" />
  <path
     fill="#fefefe"
     d="m 514.022,290.885 29.642,0.024 c 1.942,3.153 1.007,46.076 0.753,52.774 -1.055,1.021 -1.668,0.826 -3.085,0.895 -3.507,0.075 -7.366,0.447 -10.797,-0.305 -0.345,-0.448 -0.69,-0.921 -1.086,-1.325 -2.518,-2.569 -5.768,0.877 -8.551,1.508 -2.098,0.475 -4.734,0.178 -6.888,0.104 z"
     id="path25"
     style="display:inline" />
  <path
     fill="#fefefe"
     d="m 546.13,221.059 q 12.475,0.222 24.95,-0.04 c 0.542,0.927 0.812,1.747 0.882,2.824 0.475,7.314 0.879,60.592 -0.232,64.145 -0.097,0.311 -0.239,0.601 -0.395,0.885 -8.364,0.872 -17.551,0.108 -26.006,0.106 2.026,-3.233 0.97,-59.186 0.801,-67.92 z"
     id="path26" />
  <path
     fill="#fefefe"
     d="m 231.489,388.054 86.102,-0.043 c 0.008,1.351 0.037,2.706 0.17,4.052 0.678,6.877 4.434,6.487 8.71,10.418 1.255,1.153 0.793,3.875 0.782,5.472 -31.852,-0.647 -63.916,-0.286 -95.779,-0.018 z"
     id="path27" />
  <path
     fill="#fefefe"
     d="m 916.245,332.58 c 6.747,-0.81 14.221,-0.239 21.051,-0.239 l 41.975,0.027 c 1.835,3.056 1.07,17.036 0.474,21.083 l -0.137,0.183 c -3.4,1.147 -5.77,2.863 -8.373,5.252 -0.405,2.722 -0.255,6.508 -1.611,8.892 l -53.837,0.004 c 0.164,-0.24 0.224,-0.315 0.368,-0.599 1.334,-2.625 1.012,-31.366 0.09,-34.603 z"
     id="path28" />
  <path
     fill="#fefefe"
     d="m 716.82,179.576 c 5.674,-0.816 12.073,-0.291 17.819,-0.284 l 34.221,0.042 117.599,-0.028 c 1.122,1.684 1.048,4.138 1.079,6.109 0.033,2.053 0.237,5.077 -1.251,6.625 -5.334,0.72 -11.457,0.197 -16.858,0.188 l -34.423,-0.055 -118.631,0.06 c 1.64,-2.485 1.013,-9.715 0.445,-12.657 z"
     id="path29" />
  <path
     fill="#fefefe"
     d="m 592.137,365.079 c 3.856,-0.177 7.549,-0.28 11.194,1.203 0.739,0.301 1.375,0.427 2.152,0.148 0.893,-0.321 2.222,-1.107 2.877,-1.793 0.05,0.11 0.103,0.22 0.151,0.331 1.705,3.945 -0.751,9.564 1.442,13.209 2.556,0.45 31.696,-6.814 34.976,-8.214 0.213,0.328 0.71,0.9 0.811,1.25 0.641,2.206 0.014,36.939 -0.042,41.919 l -0.52,0.75 c -17.338,0.859 -35.65,0.406 -53.036,-0.019 0.269,-0.472 0.499,-0.958 0.635,-1.486 1.027,-3.982 0.637,-39.578 0.146,-44.917 -0.084,-0.907 -0.325,-1.591 -0.786,-2.381 z"
     id="path30" />
  <path
     fill="#fefefe"
     d="m 376.035,22.6494 c 5.679,-0.7177 11.349,-0.0801 16.516,2.5094 6.165,3.0903 11.284,8.6897 13.336,15.3151 2.064,6.6636 1.691,15.1314 -1.637,21.3066 -3.809,7.0694 -10.071,11.228 -17.566,13.5199 -6.884,1.1812 -13.963,0.4343 -20.02,-3.2406 q -0.563,-0.3422 -1.108,-0.7117 -0.546,-0.3695 -1.072,-0.7654 -0.527,-0.3959 -1.033,-0.8171 -0.507,-0.4213 -0.992,-0.867 -0.485,-0.4457 -0.947,-0.9147 -0.463,-0.4689 -0.902,-0.9601 -0.438,-0.4912 -0.853,-1.0033 -0.414,-0.5122 -0.802,-1.0441 -0.389,-0.5318 -0.751,-1.0822 -0.361,-0.5503 -0.696,-1.1178 -0.334,-0.5675 -0.64,-1.1507 -0.306,-0.5833 -0.583,-1.1808 -0.277,-0.5976 -0.524,-1.2081 -0.247,-0.6104 -0.464,-1.2323 -0.217,-0.6219 -0.402,-1.2537 -0.186,-0.6317 -0.341,-1.2719 c -1.627,-6.8692 -0.555,-14.5545 3.206,-20.5548 4.208,-6.7126 10.695,-10.5874 18.275,-12.2747 z"
     id="path31"
     inkscape:label="SL1" />
  <path
     fill="#f5fafb"
     d="m 373.165,58.2504 c 0.739,-0.3375 0.769,-0.3166 1.567,-0.1386 l 0.446,1.2615 c -0.216,1.0865 -0.545,1.9116 -1.277,2.7491 -1.14,1.3047 -2.57,1.6729 -4.241,1.7843 -0.286,-0.1471 -0.577,-0.3056 -0.835,-0.499 -1.212,-0.9075 -2.106,-2.1124 -2.346,-3.5723 l 0.676,-0.8727 c 1.77,-1.073 4.012,-0.7693 6.01,-0.7123 z"
     id="path32" />
  <path
     fill="#fefefe"
     d="m 549.048,101.189 c 6.544,-0.783 13.745,1.326 18.983,5.241 q 0.531,0.4 1.042,0.826 0.511,0.426 1,0.877 0.489,0.451 0.954,0.926 0.466,0.475 0.907,0.973 0.441,0.498 0.857,1.017 0.416,0.519 0.805,1.059 0.389,0.539 0.751,1.098 0.361,0.558 0.694,1.133 0.333,0.576 0.637,1.168 0.304,0.591 0.578,1.197 0.274,0.607 0.517,1.226 0.243,0.619 0.454,1.249 0.212,0.631 0.392,1.271 0.18,0.64 0.327,1.288 0.148,0.649 0.262,1.304 0.115,0.655 0.197,1.315 0.087,0.655 0.142,1.313 0.055,0.658 0.078,1.318 0.022,0.66 0.011,1.32 -0.01,0.66 -0.053,1.319 -0.043,0.659 -0.119,1.315 -0.075,0.656 -0.183,1.308 -0.108,0.651 -0.248,1.297 -0.14,0.645 -0.312,1.283 -0.172,0.637 -0.375,1.266 -0.203,0.628 -0.437,1.246 -0.234,0.617 -0.499,1.222 -0.264,0.606 -0.558,1.197 -0.294,0.591 -0.617,1.168 -0.322,0.576 -0.673,1.135 -0.351,0.56 -0.729,1.101 -0.379,0.542 -0.783,1.064 c -4.952,6.357 -11.287,9.365 -19.167,10.275 q -1.134,0.098 -2.272,0.098 -1.138,0.001 -2.272,-0.096 -1.133,-0.097 -2.255,-0.29 -1.121,-0.194 -2.222,-0.482 -1.101,-0.289 -2.173,-0.67 -1.072,-0.382 -2.107,-0.854 -1.036,-0.472 -2.027,-1.03 -0.991,-0.559 -1.931,-1.2 -0.547,-0.38 -1.075,-0.786 -0.527,-0.406 -1.034,-0.839 -0.506,-0.432 -0.991,-0.889 -0.484,-0.457 -0.945,-0.937 -0.461,-0.481 -0.897,-0.984 -0.437,-0.503 -0.847,-1.027 -0.411,-0.524 -0.795,-1.068 -0.384,-0.544 -0.741,-1.106 -0.356,-0.563 -0.684,-1.142 -0.328,-0.579 -0.626,-1.175 -0.299,-0.595 -0.567,-1.204 -0.269,-0.609 -0.507,-1.231 -0.237,-0.622 -0.444,-1.255 -0.206,-0.633 -0.38,-1.275 -0.175,-0.643 -0.317,-1.293 -0.142,-0.65 -0.252,-1.307 -0.114,-0.654 -0.195,-1.314 -0.081,-0.659 -0.13,-1.322 -0.049,-0.662 -0.065,-1.326 -0.016,-0.664 0.001,-1.328 0.016,-0.664 0.066,-1.327 0.049,-0.662 0.131,-1.322 0.081,-0.659 0.195,-1.313 0.115,-0.655 0.261,-1.303 0.146,-0.648 0.324,-1.288 0.177,-0.64 0.386,-1.27 0.21,-0.631 0.449,-1.25 0.24,-0.62 0.51,-1.227 0.27,-0.607 0.57,-1.2 0.299,-0.593 0.628,-1.17 0.328,-0.578 0.684,-1.139 0.357,-0.56 0.74,-1.103 c 4.685,-6.578 11.182,-9.825 18.971,-11.071 z"
     id="path33"
     inkscape:label="SL2" />
  <path
     fill="#fefefe"
     d="m 39.0666,193.532 70.1344,0.032 c -0.176,9.423 1.056,26.335 -0.292,34.846 l -0.86,0.461 -71.0228,0.025 c -0.0278,-5.993 -1.2239,-30.989 0.5204,-35.046 z"
     id="PC"
     inkscape:label="PC"
     sodipodi:nodetypes="ccccccc" />
  <path
     fill="#fefefe"
     d="m 588.78946,290.39764 c 1.117,-0.018 2.306,-0.126 3.413,0.007 1.323,9.186 0.328,19.768 0.335,29.127 0.011,13.198 0.755,26.869 -0.096,40.018 -0.068,1.057 -0.308,1.846 -0.864,2.745 l -2.774,-0.016 c -2.205,0.279 -4.664,0.094 -6.9,0.122 1.864,-4.025 1.399,-13.386 0.617,-17.857 -0.601,-3.437 -2.248,-7.059 -5.215,-9.08 -1.626,-1.107 -3.619,-1.381 -5.525,-0.999 -7.188,1.44 -6.283,4.728 -9.586,9.358 -0.044,0.061 -0.091,0.12 -0.136,0.181 l -17.314,0.017 c 0.358,-0.564 0.658,-1.17 0.781,-1.832 0.834,-4.479 0.636,-43.894 0.077,-49.424 -0.095,-0.939 -0.369,-1.645 -0.86,-2.445 14.669,-0.014 29.384,-0.264 44.047,0.078 z"
     id="path35" />
  <path
     fill="#13b0e3"
     d="m 589.308,290.981 c 1.117,-0.018 2.306,-0.126 3.413,0.007 1.323,9.186 0.328,19.768 0.335,29.127 0.011,13.198 0.755,26.869 -0.096,40.018 -0.068,1.057 -0.308,1.846 -0.864,2.745 l -2.774,-0.016 c 0.339,-0.481 0.631,-1.007 0.747,-1.591 1.081,-5.441 0.208,-17.48 0.213,-23.459 0.011,-14.576 0.791,-29.622 -0.103,-44.152 -0.065,-1.046 -0.31,-1.789 -0.871,-2.679 z"
     id="path36" />
  <path
     fill="#fefefe"
     d="m 697.74,133.025 36.036,-0.012 c 1.681,3.005 1.606,12.649 0.715,16.062 -0.127,0.488 -0.386,0.959 -0.646,1.387 q -9.259,-0.105 -18.519,-0.057 c 1.423,2.362 1.429,23.733 0.574,26.502 -0.15,0.485 -0.403,0.935 -0.669,1.364 l -121.929,-0.004 -0.531,-0.553 c 0.517,-2.348 0.44,-4.262 -0.514,-6.464 l -0.24,-1.087 c -3.213,-0.557 -7.037,-0.164 -10.312,-0.156 -10.237,0.026 -26.325,1.088 -36.054,-0.286 0.25,-1.35 0.526,-2.626 0.956,-3.933 2.732,-1.009 135.635,-0.72 151.226,-0.39 1.36,-2.297 1.525,-27.518 0.638,-30.733 -0.162,-0.588 -0.417,-1.119 -0.731,-1.64 z"
     id="path37" />
  <path
     fill="#fefefe"
     d="m 414.977,448.495 c 16.595,-1.229 45.426,0.297 59.395,9.96 2.362,1.634 4.986,4.19 5.36,7.198 0.219,1.763 -0.491,3.401 -1.635,4.704 -8.113,9.239 -30.736,11.711 -42.372,12.629 -16.847,1.765 -47.283,-0.18 -60.738,-10.356 -2.13,-1.612 -4.212,-3.904 -4.547,-6.666 -0.22,-1.814 0.434,-3.509 1.606,-4.879 7.782,-9.107 31.522,-11.637 42.931,-12.59 z"
     id="path38"
     inkscape:label="Sextend" />
  <path
     fill="#f5fafb"
     d="m 448.36,465.722 1.025,-0.147 0.635,0.845 c -0.194,1.312 -0.443,2.188 -1.364,3.169 -1.336,1.423 -2.809,1.515 -4.633,1.556 -0.756,-0.684 -1.919,-1.744 -2.249,-2.734 -0.32,-0.961 -0.17,-1.122 0.33,-1.967 1.821,-1.066 4.208,-0.76 6.256,-0.722 z"
     id="path39" />
  <path
     fill="#13b0e3"
     d="m 545.651,169.721 c 9.729,1.374 25.817,0.312 36.054,0.286 3.275,-0.008 7.099,-0.401 10.312,0.156 l 0.24,1.087 c 0.954,2.202 1.031,4.116 0.514,6.464 l 0.531,0.553 -0.037,1.015 c -0.41,4.076 -0.649,8.891 -0.061,12.931 l -0.037,1.029 c -0.214,5.22 -1.24,22.86 0.202,26.836 l -0.464,0.097 c 5.57,1.807 19.929,0.725 26.543,0.723 10.288,-0.003 93.456,-0.901 95.77,0.324 -13.912,-0.405 -27.894,-0.059 -41.816,-0.06 l -80.899,-0.053 c 0.682,1.97 0.765,3.763 -0.192,5.674 -0.045,0.09 -0.094,0.177 -0.141,0.265 0.466,0.808 0.716,1.504 0.797,2.439 0.497,5.754 0.679,54.659 -0.169,57.802 -0.149,0.553 -0.398,1.057 -0.694,1.546 l -2.565,0.005 c -5.077,0.788 -11.568,0.252 -16.72,-0.031 l -1.484,0.064 c 0.156,-0.284 0.298,-0.574 0.395,-0.885 1.111,-3.553 0.707,-56.831 0.232,-64.145 -0.07,-1.077 -0.34,-1.897 -0.882,-2.824 q -12.475,0.262 -24.95,0.04 c 8.203,-0.964 16.622,0.286 24.919,-0.677 -8.04,-0.765 -16.681,0.765 -24.581,-0.552 l -0.427,-0.075 c 0.474,-3.826 0.95,-10.581 -0.492,-14.113 l 0.069,-1.707 c 0.11,-0.285 0.215,-0.526 0.29,-0.818 0.701,-2.697 0.834,-7.458 -0.648,-9.875 l 44.051,0.002 0.002,-1.031 c 0.35,-0.411 0.661,-0.871 0.788,-1.403 0.604,-2.545 0.725,-9.304 -0.549,-11.515 l 0.136,-0.523 -0.085,-0.507 c -5.711,0.008 -40.346,0.728 -42.731,-0.305 -0.314,-0.136 -0.986,-3.985 -1.319,-4.821 -0.041,-0.105 -0.086,-0.208 -0.13,-0.312 0.508,-1.214 0.583,-1.834 0.228,-3.106 z"
     id="path40" />
  <path
     fill="#fefefe"
     d="m 545.423,172.827 43.723,-0.042 c 0.816,1.029 1.331,1.934 1.155,3.298 -0.096,0.746 -0.376,1.506 -0.698,2.182 -5.711,0.008 -40.346,0.728 -42.731,-0.305 -0.314,-0.136 -0.986,-3.985 -1.319,-4.821 -0.041,-0.105 -0.086,-0.208 -0.13,-0.312 z"
     id="path41" />
  <path
     fill="#fefefe"
     d="m 545.549,205.642 25.626,-0.029 c 1.591,2.672 1.3,9.507 0.686,12.602 -0.117,0.587 -0.407,1.11 -0.74,1.6 l -25.08,-0.06 c 0.474,-3.826 0.95,-10.581 -0.492,-14.113 z"
     id="path42" />
  <path
     fill="#fefefe"
     d="m 545.26,193.242 44.051,0.002 c 1.765,2.042 1.185,20.83 0.876,24.537 -0.052,0.629 -0.216,0.918 -0.57,1.421 l -0.949,0.579 c -5.119,-0.312 -10.354,-0.051 -15.485,-0.009 0.278,-0.452 0.539,-0.934 0.679,-1.449 0.854,-3.149 0.896,-11.651 -0.669,-14.389 q -13.787,0.104 -27.575,0.001 c 0.11,-0.285 0.215,-0.526 0.29,-0.818 0.701,-2.697 0.834,-7.458 -0.648,-9.875 z"
     id="path43" />
  <path
     fill="#FEFEFE"
     d="m 573.49467,221.42967 c 4.881,0.14 11.098,-1.075 15.757,0.23 0.932,0.261 0.856,0.299 1.331,1.145 l -0.568,1.887 c 1.266,3.504 1.205,61.745 0.013,64.281 -0.037,0.08 -0.081,0.156 -0.122,0.234 -5.077,0.788 -11.568,0.252 -16.72,-0.031 0.374,-0.518 0.749,-1.07 0.931,-1.69 1.055,-3.595 0.724,-56.412 0.265,-63.287 -0.071,-1.068 -0.337,-1.858 -0.887,-2.769 z"
     id="path44"
     style="color:#000000;font-style:normal;font-variant:normal;font-weight:normal;font-stretch:normal;font-size:medium;line-height:normal;font-family:sans-serif;font-variant-ligatures:normal;font-variant-position:normal;font-variant-caps:normal;font-variant-numeric:normal;font-variant-alternates:normal;font-variant-east-asian:normal;font-feature-settings:normal;font-variation-settings:normal;text-indent:0;text-align:start;text-decoration-line:none;text-decoration-style:solid;text-decoration-color:#000000;letter-spacing:normal;word-spacing:normal;text-transform:none;writing-mode:lr-tb;direction:ltr;text-orientation:mixed;dominant-baseline:auto;baseline-shift:baseline;text-anchor:start;white-space:normal;shape-padding:0;shape-margin:0;inline-size:0;clip-rule:nonzero;display:inline;overflow:visible;visibility:visible;isolation:auto;mix-blend-mode:normal;color-interpolation:sRGB;color-interpolation-filters:linearRGB;solid-color:#000000;solid-opacity:1;vector-effect:none;fill:#fefefe;fill-opacity:1;fill-rule:nonzero;stroke:none;stroke-linecap:butt;stroke-linejoin:miter;stroke-miterlimit:4;stroke-dasharray:none;stroke-dashoffset:0;stroke-opacity:1;-inkscape-stroke:none;color-rendering:auto;image-rendering:auto;shape-rendering:auto;text-rendering:auto;enable-background:accumulate;stop-color:#000000;stop-opacity:1" />
  <path
     fill="#fefefe"
     d="m 224.934,332.788 c 2.354,2.972 -1.124,73.727 1.005,76.207 l 3.07,0.039 c 1.442,1.514 0.735,51.617 0.65,57.863 10.804,-0.47 21.698,-0.192 32.513,-0.186 l 55.542,0.025 c -0.029,5.637 0.993,21.658 -0.467,25.752 l -0.839,0.301 -94.38,0.019 c 0.456,-37.449 0.112,-74.944 0.126,-112.398 l -0.104,-29.132 c -0.017,-4.715 -0.481,-10.11 0.18,-14.755 0.243,-1.703 1.55,-2.557 2.704,-3.735 z"
     id="path45" />
  <path
     fill="#f5fafb"
     d="m 277.557,482.26 c 0.905,0.006 1.935,-0.026 2.816,0.182 1.472,0.346 2.06,1.066 2.815,2.29 0.147,1.828 -0.454,2.71 -1.4,4.197 -0.773,-0.05 -1.983,-0.076 -2.701,-0.39 -1.284,-0.562 -1.59,-1.161 -2.185,-2.331 -0.013,-1.505 0.067,-2.533 0.655,-3.948 z"
     id="path46" />
  <path
     fill="#fefefe"
     d="m 593.167,193.242 122.498,-10e-4 c 1.158,2.475 1.101,23.293 -0.122,26.43 -0.044,0.113 -0.092,0.224 -0.138,0.336 l -72.792,-0.041 c -16.395,0.007 -32.855,-0.291 -49.244,0.112 -1.442,-3.976 -0.416,-21.616 -0.202,-26.836 z"
     id="path47" />
  <path
     fill="#fefefe"
     d="m 684.227,351.011 c 4.385,-0.019 22.311,-1.088 25.088,1.035 1.032,2.286 1.432,4.635 1.622,7.118 0.457,5.994 0.844,51.083 -0.361,54.03 -0.109,0.266 -0.248,0.518 -0.378,0.774 -20.667,0.011 -41.67,0.838 -62.296,-0.091 l -2.724,0.005 0.52,-0.75 c 0.056,-4.98 0.683,-39.713 0.042,-41.919 -0.101,-0.35 -0.598,-0.922 -0.811,-1.25 l 2.735,-0.527 c 5.838,-1.466 34.135,-7.68 36.458,-9.488 1.1,-2.206 1.433,-5.244 0.719,-7.64 -0.137,-0.461 -0.366,-0.888 -0.614,-1.297 z"
     id="path48" />
  <path
     fill="#13b0e3"
     d="m 644.929,369.963 2.735,-0.527 c 0.517,0.748 0.8,1.408 0.907,2.308 0.562,4.748 0.756,36.321 -0.062,40.557 -0.108,0.558 -0.33,1.082 -0.607,1.576 l -2.724,0.005 0.52,-0.75 c 0.056,-4.98 0.683,-39.713 0.042,-41.919 -0.101,-0.35 -0.598,-0.922 -0.811,-1.25 z"
     id="path49" />
  <path
     fill="#fefefe"
     d="m 620.098,42.139 c 0.104,-0.0014 0.208,-0.0152 0.311,-0.0041 1.691,0.182 50.892,32.5086 53.461,35.5337 0.434,7.0898 1.157,29.9674 -0.365,35.8064 -0.773,1.646 -26.209,18.124 -29.341,19.561 -1.413,2.24 -21.638,15.049 -24.837,16.277 0.184,-0.307 0.353,-0.617 0.487,-0.95 1.116,-2.781 1.122,-30.872 -0.163,-34.05 0.358,-0.21 0.734,-0.443 1.038,-0.727 2.113,-1.979 12.815,-15.808 12.955,-18.077 -0.005,-0.2799 0.002,-0.2928 -0.042,-0.6071 -0.347,-2.4486 -11.68,-16.6569 -13.985,-18.4342 1.824,-3.9399 0.988,-28.8076 0.481,-34.3287 z"
     id="path50"
     inkscape:label="Alu+2" />
  <path
     fill="#fefefe"
     d="m 185.86682,36.853428 c 6.785,3.8923 13.26,8.605 19.772,12.9476 l 34.141,22.7575 -0.002,35.966202 -30.307,20.204 -23.625,15.68 q -0.117,-17.446 0.052,-34.892 c 4.4,-6.513 9.531,-12.633302 14.119,-19.033402 q -7.152,-9.4284 -14.122,-18.9924 -0.154,-17.319 -0.028,-34.6375 z"
     id="path51"
     inkscape:label="Alu+1" />
  <path
     fill="#fefefe"
     d="m 393.433,205.643 77.114,-0.024 q -0.006,6.714 0.102,13.427 l 0.099,1.534 c 0.233,0.126 0.782,0.516 1.014,0.545 4.488,0.558 14.835,-0.157 19.9,-0.156 l 52.038,-0.014 c 0.397,0.692 0.676,1.352 0.732,2.153 0.489,6.978 0.73,61.517 -0.142,64.779 -0.115,0.431 -0.273,0.692 -0.511,1.066 -9.915,0.018 -19.848,-0.092 -29.76,0.073 l -0.008,-60.225 -52.316,0.074 c -8.843,0.002 -17.888,0.406 -26.711,-0.042 0.174,-2.796 0.092,-5.594 0.046,-8.392 -1.569,0.083 -4.11,0.5 -5.473,-0.304 -0.356,-0.21 -0.447,-1.212 -0.548,-1.631 0.471,-1.375 0.74,-3.151 0.725,-4.601 -0.018,-1.722 -0.452,-2.355 -1.678,-3.488 -1.962,0.419 -3.187,0.695 -4.344,2.489 -0.074,0.114 -0.14,0.233 -0.21,0.349 0.131,1.69 0.141,3.197 1.117,4.647 1.049,0.752 2.057,0.822 3.298,0.993 l 0.179,0.725 c -1.695,1.371 -15.025,0.839 -18.059,0.842 -6.527,0.4 -13.322,-0.006 -19.876,-0.025 l -7.307,-0.008 c 4.807,-4.249 7.818,-9.061 10.579,-14.786 z"
     id="path52" />
  <path
     fill="#fefefe"
     d="m 268.067,119.116 c 25.137,0.278 50.302,0.045 75.442,0.025 -6.07,16.28 -8.193,32.765 -7.123,50.078 l -5.634,-2.867 c -1.298,0.19 -0.866,1.141 -1.782,2.162 -11.609,0.615 -23.489,0.137 -35.128,0.134 l -64.067,-0.086 c -0.376,14.587 -0.019,29.285 -0.019,43.886 l 0.002,87.052 c 10e-4,4.16 0.727,27.485 -0.123,29.703 -0.469,1.225 -0.898,1.464 -2.026,1.884 l -0.423,-0.291 c -0.729,-1.192 -0.741,-3.221 -0.781,-4.613 -0.496,-16.918 0.105,-34.107 0.101,-51.055 l -0.011,-111.503 q 20.839,-0.11 41.679,0.038 z"
     id="path59" />
  <path
     fill="#fefefe"
     d="m 231.493,327.918 c 22.479,0.469 45.068,0.067 67.556,0.071 l -0.012,32.236 18.633,-0.15 -0.017,25.979 -86.2,0.004 z"
     id="path60" />
  <path
     fill="#fefefe"
     d="m 715.267,351.369 c 4.803,-0.757 10.124,-0.361 14.993,-0.358 l 26.78,0.034 c 6.284,0.004 13.275,-0.744 19.466,-0.103 1.408,0.146 2.04,1.283 2.807,2.293 1.54,-0.083 3.81,-1.592 4.924,-2.638 1.736,3.153 1.143,55.081 0.77,62.718 l -0.568,0.464 -2.266,-0.528 c -0.725,-0.786 -1.293,-1.105 -2.301,-1.449 -0.988,0.873 -2.023,1.863 -3.341,2.166 -4.076,0.939 -11.693,0.004 -16.136,0.004 l -48.321,0.031 c 2.518,-4.4 0.862,-38.864 0.818,-46.015 -0.025,-4.206 -0.616,-9.849 0.58,-13.865 0.309,-1.037 1.099,-1.948 1.795,-2.754 z"
     id="path61" />
  <path
     fill="#fefefe"
     d="m 259.09,91.7513 248.666,0.0338 -0.037,12.4469 c -9.832,-0.005 -71.098,0.718 -74.36,-0.535 -0.953,-1.982 0.022,-5.9596 0.106,-8.2045 l -0.586,-0.5135 c -0.025,0.1397 -0.04,0.2815 -0.074,0.4191 -0.651,2.6027 -0.282,6.0349 -0.3,8.7489 l -45.111,0.147 -1.002,-0.477 c -2.914,-4.494 -7.819,-7.6936 -13.045,-8.7883 -5.235,-1.0963 -10.319,-0.1974 -14.753,2.8168 -5.484,3.7275 -9.274,9.7265 -12.346,15.4665 -0.812,1.517 -1.497,3.605 -2.577,4.882 -6.735,-0.283 -13.5,0.242 -20.234,-0.023 -2.22,-0.087 -3.787,-1.821 -5.702,-1.69 l 0.766,1.173 c -1.977,1.205 -45.384,0.452 -51.479,0.447 q -0.064,22.247 0.101,44.494 c -13.838,-0.319 -27.824,0.561 -41.636,-0.296 l -0.05,129.501 c -0.004,5.364 0.676,35.532 -0.266,38.06 l -0.852,-0.219 c -1.72,-1.764 -2.193,-3.806 -2.38,-6.215 -0.368,-4.748 0.188,-9.73 0.179,-14.506 l -0.02,-36.87 -0.067,-115.511 37.226,0.045 c -0.571,-21.567 -0.141,-43.25 -0.167,-64.8327 z"
     id="path62" />
  <path
     fill="#fefefe"
     d="m 338.341,374.039 0.784,1.886 c 2.172,0.493 4.395,-1.227 6.261,-2.283 l -0.018,40.741 c -1.72,-0.905 -4.224,-2.671 -6.163,-2.639 l -0.387,1.594 c -1.6,1.347 -17.824,0.674 -21.218,0.664 l 0.024,50.96 -75.494,0.002 -10.661,0.017 0.005,-56.118 c 32.317,0.183 64.7,-0.575 97.006,0.144 -0.282,-2.331 -0.184,-4.792 -0.235,-7.143 1.931,-0.301 3.718,-0.837 5.325,-1.99 7.427,-5.331 3.269,-17.695 4.69,-25.416 z"
     id="path63" />
  <path
     fill="#fefefe"
     d="m 231.458,272.128 c 25.322,0.335 50.696,0.039 76.024,0.022 6.964,-0.005 23.178,-0.886 29.215,-0.022 1.532,0.22 2.062,1.277 2.876,2.405 1.784,-0.163 4.189,-1.942 5.784,-2.823 l 0.032,54.024 c -2.322,0.261 -3.836,-1.958 -6.155,-2.005 -0.225,0.796 -0.462,1.315 -0.912,2.01 -8.652,1.24 -24.09,0.237 -33.382,0.231 l -73.479,0.031 z"
     id="path64"
     sodipodi:nodetypes="ccccccccccc"
     style="display:inline" />
  <path
     fill="#fefefe"
     d="m 545.255,415.897 c 14.675,-0.022 29.598,-0.578 44.245,0.129 1.263,2.842 1.382,17.866 0.287,20.555 -0.152,0.374 -0.166,0.385 -0.33,0.699 -10.096,1.376 -18.209,5.132 -24.498,13.365 q -0.492,0.643 -0.952,1.31 -0.459,0.667 -0.885,1.355 -0.425,0.689 -0.816,1.399 -0.391,0.709 -0.745,1.437 -0.355,0.728 -0.673,1.472 -0.318,0.745 -0.598,1.505 -0.28,0.76 -0.522,1.532 -0.242,0.773 -0.445,1.557 -0.202,0.784 -0.366,1.577 -0.163,0.793 -0.287,1.593 -0.123,0.8 -0.207,1.605 -0.083,0.806 -0.126,1.614 -0.043,0.809 -0.046,1.618 -0.002,0.81 0.036,1.619 0.038,0.808 0.116,1.614 0.078,0.806 0.197,1.607 c 0.758,5.497 2.776,9.44 5.673,14.107 0.361,0.582 1.552,1.939 1.702,2.532 0.087,0.344 -0.035,0.709 -0.053,1.064 -27.184,0.821 -54.656,0.022 -81.866,0.023 l -164.683,0.028 0.033,-26.113 49.016,-0.036 c 0.14,0.399 0.293,0.789 0.438,1.186 0.193,0.529 0.371,1.05 0.619,1.557 2.566,5.248 10.301,8.53 15.615,10.286 22.854,7.548 64.988,8.274 86.772,-2.838 4.609,-2.351 8.036,-5.158 9.641,-10.165 l 63.76,0.024 c 0.302,-0.541 0.548,-1.092 0.7,-1.693 0.889,-3.509 0.593,-41.572 0.111,-46.548 -0.096,-0.984 -0.367,-1.726 -0.863,-2.576 z"
     id="path65" />
  <path
     fill="#fefefe"
     d="m 610.829,268.156 c 3.857,-0.05 63.606,15.203 71.578,17.714 0.204,0.335 0.37,0.664 0.509,1.033 0.935,2.475 0.727,69.258 -0.363,71.778 -4.309,2.249 -19.378,4.947 -25.026,6.263 -5.503,1.983 -11.648,3.068 -17.347,4.482 -10.011,2.483 -20.021,5.14 -30.107,7.297 0.215,-0.362 0.183,-0.292 0.392,-0.736 1.243,-2.631 0.991,-31.671 -0.102,-34.689 0.28533,-0.194 0.55867,-0.40367 0.82,-0.629 2.314,-1.971 12.978,-16.032 13.182,-18.305 -0.013,-0.152 -0.021,-0.306 -0.045,-0.458 -0.424,-2.786 -11.405,-16.565 -13.977,-18.46 1.89,-3.74 0.762,-29.53 0.486,-35.29 z"
     id="Alu"
     sodipodi:nodetypes="cccccccccccccc" />
  <path
     fill="#f5fafb"
     d="m 650.403,349.221 c 1.928,-0.267 4.42,-0.625 6.17,0.35 l 0.191,0.928 -1.139,1.416 c -0.248,0.785 -0.391,0.725 -1.127,1.127 -1.681,-0.495 -2.997,-2.503 -4.095,-3.821 z"
     id="path67" />
  <path
     fill="#f5fafb"
     d="m 642.508,342.775 c 1.245,-0.33 2.413,-0.625 3.711,-0.357 1.674,0.346 2.226,1.098 3.084,2.426 -0.06,1.307 -0.002,1.907 -1.068,2.835 -1.493,1.299 -2.912,0.76 -4.659,0.459 l -0.862,0.645 q -0.022,1.86 -0.073,3.719 l -0.473,-0.01 c -1.005,-2.752 -0.734,-6.242 -0.42,-9.115 z"
     id="path68" />
  <path
     fill="#fefefe"
     d="m 576.758,59.2355 c 8.182,-0.06 27.774,-1.1672 34.766,0.1646 0.269,0.7268 0.543,1.4478 0.839,2.1638 1.364,-0.0589 4.314,-1.5484 5.259,-2.5736 0.059,-0.0635 0.104,-0.138 0.156,-0.207 1.536,3.0342 1.491,13.6491 0.605,17.0094 -0.129,0.4878 -0.39,0.9578 -0.653,1.3851 2.214,1.5484 13.308,15.404 13.881,17.76 0.043,0.1776 0.027,0.4837 0.026,0.6455 -1.725,3.6831 -10.55,16.0337 -13.742,17.9647 1.194,2.788 1.343,10.702 0.161,13.524 -0.028,0.067 -0.06,0.132 -0.09,0.198 -1.626,-0.998 -3.185,-1.813 -4.965,-2.502 -0.738,0.527 -1.957,1.91 -2.733,2.14 -4.015,1.192 -24.201,0.151 -29.995,0.163 0.78,-5.381 -2.107,-11.863 -5.274,-16.137 -4.523,-6.105 -11.536,-10.567 -19.096,-11.5599 q -0.707,-0.0983 -1.418,-0.1609 -0.711,-0.0626 -1.424,-0.0893 -0.713,-0.0267 -1.427,-0.0174 -0.714,0.0093 -1.426,0.0545 -0.713,0.0452 -1.422,0.1262 -0.709,0.081 -1.413,0.1977 -0.704,0.1166 -1.401,0.2686 -0.698,0.152 -1.387,0.3385 -0.689,0.187 -1.367,0.409 -0.679,0.221 -1.345,0.476 -0.667,0.256 -1.319,0.544 -0.653,0.289 -1.29,0.61 -0.638,0.321 -1.258,0.673 -0.621,0.353 -1.222,0.737 -0.602,0.383 -1.184,0.797 -0.582,0.413 -1.142,0.855 -0.572,0.441 -1.122,0.91 -0.549,0.47 -1.075,0.966 -0.525,0.496 -1.025,1.017 -0.5,0.522 -0.973,1.067 -0.474,0.546 -0.919,1.115 -0.446,0.569 -0.862,1.159 -0.417,0.59 -0.804,1.2 -0.386,0.61 -0.742,1.239 -0.356,0.629 -0.68,1.275 -0.324,0.645 -0.615,1.306 -0.291,0.661 -0.549,1.336 -0.258,0.675 -0.482,1.362 -0.224,0.686 -0.414,1.383 -0.189,0.697 -0.344,1.403 -0.154,0.706 -0.273,1.418 -0.12,0.713 -0.203,1.43 -0.082,0.688 -0.13,1.379 -0.048,0.691 -0.061,1.383 -0.013,0.693 0.008,1.385 0.022,0.692 0.078,1.382 0.056,0.691 0.147,1.377 0.091,0.687 0.216,1.368 0.125,0.681 0.284,1.356 0.159,0.674 0.352,1.339 0.192,0.665 0.418,1.32 0.226,0.655 0.484,1.298 0.258,0.642 0.549,1.271 0.29,0.629 0.611,1.243 0.321,0.614 0.673,1.211 0.352,0.596 0.733,1.175 0.381,0.578 0.79,1.137 0.41,0.559 0.847,1.096 c 3.939,4.836 8.849,7.893 14.604,10.155 0.957,1.979 0.848,5.625 0.177,7.723 -0.115,0.361 -0.28,0.627 -0.484,0.943 l -30.22,0.03 0.059,-43.576 -117.535,0.045 c -2.192,-5.567 -4.795,-10.705 -8.214,-15.624 l 121.16,0.067 q -0.263,-6.7498 -0.254,-13.5045 l 64.522,0.0347 c 1.892,-3.2014 1.167,-24.9639 0.44,-29.5256 1.424,-0.9016 2.253,-1.5706 3.128,-3.0311 z"
     id="path69" />
  <path
     fill="#fefefe"
     d="m 514.011,346.247 8.917,-0.009 3.008,3.187 0.012,66.533 17.801,-0.055 c 0.278,0.406 0.474,0.796 0.589,1.28 0.914,3.838 0.534,40.093 0.081,45.329 -0.082,0.947 -0.326,1.651 -0.789,2.475 h -61.929 l -0.134,-0.334 c -0.318,-0.771 -0.595,-1.561 -0.957,-2.313 -2.433,-5.055 -9.49,-8.216 -14.561,-10.009 -23.409,-8.279 -64.523,-8.761 -87.149,2.115 -5.019,2.412 -8.607,5.184 -10.487,10.542 l -19.56,-0.014 -29.426,0.026 0.013,-49.162 c 6.301,0.035 13.345,-0.622 19.527,0.429 l 0.288,1.65 c 1.58,0.258 4.571,-1.73 6.1,-2.471 l -0.019,18.856 c 20.044,-0.336 40.139,-0.057 60.19,-0.06 l 108.472,0.041 z"
     id="path70" />
  <path
     fill="#fefefe"
     d="m 592.503,221.109 80.899,0.053 c 13.922,0.001 27.904,-0.345 41.816,0.06 0.521,0.785 0.805,1.476 0.863,2.414 0.931,15.08 0.069,30.755 0.059,45.887 -0.004,5.349 0.822,18.379 -0.16,23.036 -0.12,0.572 -0.38,1.106 -0.678,1.605 q -15.505,-0.211 -31.01,-0.034 c 1.131,-2.065 1.162,-6.168 0.508,-8.442 -0.129,-0.445 -0.337,-0.764 -0.593,-1.144 -4.388,-1.938 -70.341,-18.389 -75.786,-18.731 1.29,2.661 1.42,19.358 0.366,22.207 -0.087,0.236 -0.196,0.463 -0.301,0.692 -0.056,0.124 -0.107,0.251 -0.165,0.375 -0.035,0.074 -0.076,0.146 -0.114,0.219 -1.116,-1.012 -2.092,-1.56 -3.455,-2.157 -0.803,0.165 -1.61,0.309 -2.381,0.593 -3.709,1.361 -6.392,1.394 -10.267,1.093 0.296,-0.489 0.545,-0.993 0.694,-1.546 0.848,-3.143 0.666,-52.048 0.169,-57.802 -0.081,-0.935 -0.331,-1.631 -0.797,-2.439 0.047,-0.088 0.096,-0.175 0.141,-0.265 0.957,-1.911 0.874,-3.704 0.192,-5.674 z"
     id="path71" />
  <path
     fill="#fefefe"
     d="m 573.321,31.933 c 5.329,-1.1545 12.051,-0.4158 17.548,-0.4061 l 34.073,0.0643 131.485,-0.0505 c 0.317,0.5161 0.586,1.0516 0.745,1.6381 0.924,3.4112 0.727,28.357 -0.742,30.7818 l 27.826,0.0077 c 0.345,0.5598 0.639,1.1601 0.75,1.814 0.612,3.5901 0.853,21.7312 -0.772,24.2881 l -20.599,-0.0219 -88.447,0.0494 c 0.308,-0.5557 0.567,-1.1411 0.682,-1.7695 0.53,-2.9031 0.885,-9.3163 -0.719,-11.7398 -0.755,-1.6255 -49.864,-34.8365 -55.579,-37.2097 -2.242,2.1554 -0.022,14.4775 -1.666,18.3142 -0.052,0.1214 -0.109,0.2406 -0.163,0.3608 -0.872,-1.4103 -3.709,-2.5178 -5.267,-3.0577 -0.487,0.5967 -0.619,1.1386 -0.806,1.8655 l -0.074,0.2979 c -4.386,1.3135 -28.721,0.3266 -34.92,0.3039 -0.837,-1.4146 -1.702,-2.2518 -2.976,-3.2732 0.827,-4.3169 1.227,-18.4376 -0.379,-22.2573 z"
     id="path72" />
  <path
     fill="#fefefe"
     d="m 508.656,22.0914 303.532,-0.0207 c 0.041,0.0867 0.081,0.174 0.124,0.2599 0.049,0.0974 0.104,0.1915 0.151,0.29 1.388,2.9454 1.016,19.6005 -0.145,22.8961 6.085,-0.3262 12.259,-0.1857 18.356,-0.2262 0.246,0.4353 0.45,0.8818 0.578,1.3671 0.852,3.22 0.789,22.372 -0.669,24.7453 L 804.638,71.361 c 1.778,-2.851 1.443,-9.9433 0.827,-13.2505 -0.618,-3.3173 -2.059,-6.754 -4.969,-8.6925 -1.875,-1.2493 -4.101,-1.5469 -6.281,-1.0564 -5.356,1.2047 -6.965,4.6578 -9.575,8.8132 0.036,0.0992 0.077,0.1965 0.108,0.2976 0.412,1.3664 0.66,2.9073 0.038,4.2219 -6.232,1.3853 -19.791,0.3978 -26.558,0.403 0.041,-0.081 0.08,-0.1628 0.123,-0.2431 0.182,-0.3445 0.151,-0.2454 0.323,-0.6506 0.988,-2.3346 1.027,-29.0843 -0.009,-31.4781 -27.839,0.7229 -55.853,0.1053 -83.708,0.1064 -34.535,0.0013 -69.148,0.4764 -103.674,-0.146 1.632,2.8283 1.318,21.3645 0.384,24.9978 -1.037,1.0406 -1.793,1.8329 -2.311,3.2524 0.341,2.212 1.535,2.3687 2.3,4.1607 0.054,0.1252 0.1,0.2531 0.151,0.3796 0.713,5.427 1.346,22.6709 -0.397,27.591 L 508.645,90.058 c 0.633,-22.5842 0.083,-45.3684 0.011,-67.9666 z"
     id="path73" />
  <path
     fill="#fefefe"
     d="m 675.474,92.0684 c 8.039,-1.3789 24.437,-0.2825 33.236,-0.2737 l 75.691,-0.0395 c 1.354,1.7149 0.983,5.6166 1.722,7.7665 1.448,4.2183 4.575,4.2943 7.963,6.0413 0.141,0.072 0.279,0.149 0.419,0.223 0.771,4.563 1.189,32.521 -0.489,35.494 -10.267,-0.203 -20.563,-0.017 -30.833,0.008 0.143,-0.483 0.165,-0.402 0.165,-0.803 -0.004,-4.615 -2.274,-9.025 -5.49,-12.254 -6.406,-6.434 -15.759,-5.646 -24.102,-5.719 0.18,0.314 0.346,0.629 0.477,0.967 1.013,2.631 0.726,6.128 -0.491,8.621 -12.289,-0.543 -24.785,-0.121 -37.094,-0.12 0.322,0.5 0.599,1.023 0.762,1.598 0.949,3.351 0.744,28.356 -0.676,30.774 l -38.909,-0.022 -112.602,-0.005 c 0.238,-0.377 0.413,-0.683 0.566,-1.102 0.873,-2.374 0.623,-4.864 -0.515,-7.075 5.894,0.275 12.351,0.692 17.881,-1.809 6.777,-3.066 13.222,-9.682 15.778,-16.691 0.936,-2.568 1.935,-6.23 0.754,-8.83 5.027,0.024 29.187,-0.934 31.988,0.446 l 0.492,1.768 0.68,0.181 c 1.673,-0.814 3.498,-1.557 4.884,-2.82 0.265,0.502 0.534,1.059 0.661,1.617 1.039,4.558 0.909,18.94 -1.324,22.645 5.023,-1.722 56.845,-35.877 58.213,-38.618 0.082,-0.146 0.17,-0.289 0.245,-0.439 1.279,-2.56 0.919,-18.4324 -0.052,-21.5296 z"
     id="path74" />
  <path
     fill="#fefefe"
     d="m 490.818,22.0586 c 5.629,0.1997 11.312,0.024 16.948,0.0051 l -0.077,67.9947 -248.569,-0.0124 0.007,-10.4955 0.042,-29.5896 92.571,-0.0052 c 0.844,5.9363 2.133,11.1718 5.743,16.0849 4.438,6.0399 11.307,10.3322 18.748,11.412 7.619,1.1057 15.342,-0.7197 21.493,-5.4105 7.483,-5.7074 10.319,-12.9448 11.525,-22.0698 l 81.633,-0.0043 z"
     id="path75" />
  <path
     fill="#fefefe"
     d="m 916.275,369.623 c 5.725,-0.686 12.018,-0.206 17.807,-0.206 l 35.474,0.016 c 0.249,0.388 0.471,0.796 0.597,1.242 0.858,3.022 0.749,22.657 -0.598,24.882 -9.16,-0.457 -18.411,0.085 -27.595,-0.257 0.16,0.36 0.289,0.712 0.397,1.092 0.998,3.527 0.792,54.962 0.211,61.291 -0.089,0.964 -0.362,1.683 -0.859,2.507 -21.87,-0.546 -43.884,-0.034 -65.767,-0.035 l -130.031,-0.002 -33.844,0.008 c 0.29,-0.424 0.537,-0.866 0.688,-1.36 0.939,-3.083 0.724,-40.64 -0.622,-42.983 15.886,0.294 31.815,0.115 47.705,0.092 5.215,-0.008 11.668,-0.942 16.714,-0.119 1.148,0.187 2.086,1.303 2.742,2.197 0.01,0.013 0.012,0.031 0.018,0.047 1.63,-0.136 3.709,-1.473 4.815,-2.647 0.312,0.49 0.62,1.03 0.775,1.596 0.934,3.422 0.954,14.189 -0.652,17.317 43.829,-0.515 87.777,-0.365 131.61,0.009 0.048,-0.077 0.101,-0.151 0.146,-0.23 1.31,-2.28 1.302,-60.127 0.269,-64.457 z"
     id="path76" />
  <path
     fill="#fefefe"
     d="m 716.796,193.534 c 5.585,-0.862 11.981,-0.319 17.65,-0.312 l 33.87,0.042 118.151,-0.026 c 0.232,0.353 0.411,0.686 0.572,1.079 0.829,2.02 0.6,96.875 -0.157,98.801 l -1.635,0.546 c -23.886,-0.277 -47.811,0.005 -71.701,0.017 0.21,-0.342 0.382,-0.679 0.526,-1.056 0.734,-1.922 0.971,-65.316 0.349,-71.003 -0.074,-0.676 -0.337,-1.29 -0.647,-1.889 -32.469,0.723 -65.001,-0.142 -97.482,0.242 0.041,-0.083 0.081,-0.167 0.124,-0.25 1.728,-3.304 1.295,-22.312 0.38,-26.191 z"
     id="path77" />
  <path
     fill="#fefefe"
     d="m 888.081,193.535 c 8.652,-1.302 20.316,-0.313 29.217,-0.309 l 61.98,0.01 c 0.411,0.75 0.738,1.592 0.803,2.451 0.498,6.638 0.072,13.589 0.065,20.263 l -0.075,40.617 c -0.076,21.231 1.06,42.897 -0.063,64.069 -0.916,0.894 -1.799,0.676 -3.028,0.728 -5.424,0.008 -52.652,0.454 -53.62,-0.384 -0.307,-0.266 -0.225,-1.342 -0.904,-1.953 -2.244,1.022 -4.444,1.916 -6.789,2.686 0.326,-0.508 0.591,-1.028 0.764,-1.608 0.96,-3.217 0.947,-23.918 -0.538,-26.509 -9.378,0.351 -18.871,0.057 -28.261,0.066 0.044,-0.065 0.092,-0.128 0.133,-0.195 0.68,-1.108 0.642,-2.35 0.684,-3.606 0.724,-21.614 0.038,-43.498 0.025,-65.139 -0.004,-6.758 0.94,-25.449 -0.393,-31.187 z"
     id="path78" />
  <path
     fill="#fefefe"
     d="m 336.392,169.902 c 0.853,7.541 1.839,14.904 3.929,22.227 3.609,11.448 8.975,25.745 20.328,31.7 3.914,2.053 8.908,2.915 13.178,1.492 2.87,-0.956 5.891,-2.558 8.858,-3.07 4.183,-0.722 9.43,-0.158 13.708,-0.143 12.227,0.041 24.725,0.59 36.928,-0.098 0.058,2.375 0,4.818 0.249,7.178 -6.357,-1.39 -19.308,-0.367 -26.184,-0.36 l -62.033,-0.036 0.038,42.055 c -1.738,-0.919 -4.18,-2.645 -6.142,-2.679 -0.283,1.135 -0.291,1.487 -1.139,2.335 l -106.662,-0.015 0.007,-100.226 c 24.89,0.465 49.872,0.005 74.771,0.01 4.55,0.001 19.127,-0.809 22.733,0.152 0.845,0.225 0.576,1.602 1.373,2.34 2.084,-0.803 4.066,-1.861 6.06,-2.862 z"
     id="path79"
     sodipodi:nodetypes="ccscccccccccccccccc"
     style="display:inline" />
  <path
     fill="#fefefe"
     d="m 717.327,220.915 c 16.261,0.501 32.681,0.046 48.956,0.057 15.44,0.01 31.075,0.519 46.493,-0.211 0.136,0.278 0.152,0.286 0.251,0.635 0.909,3.209 0.764,62.463 0.207,69.813 -0.068,0.896 -0.358,1.665 -0.758,2.461 l -28.283,-0.079 c 0.31,0.505 0.563,1.022 0.72,1.595 0.824,3.007 0.581,46.443 0.121,51.628 -0.088,0.985 -0.348,1.743 -0.819,2.606 -0.068,-0.064 -0.134,-0.13 -0.203,-0.192 -1.652,-1.485 -3.665,-2.229 -5.871,-2.152 l 0.296,1.192 -0.61,0.709 -61.867,-0.006 c -1.071,-1.197 -1.819,-2.057 -3.373,-2.607 -2.033,0.176 -3.249,1.278 -4.707,2.582 l -23.68,0.076 c 0.264,-0.423 0.498,-0.869 0.628,-1.354 0.845,-3.153 0.572,-45.053 0.135,-50.257 -0.075,-0.886 -0.302,-1.51 -0.774,-2.268 10.854,-0.054 21.727,-0.24 32.577,0.085 1.451,-2.788 0.283,-65.03 0.561,-74.313 z"
     id="path80"
     style="display:inline" />
  <path
     fill="#fefefe"
     d="m 37.0207,286.058 174.0423,-0.021 c -0.383,30.288 -0.031,60.625 -0.033,90.918 l -174.0028,0.064 z"
     id="InsMem"
     inkscape:label="InsMem" />
  <path
     fill="#13B0E3"
     d="m 343.671,118.194 c 1.08,-1.277 1.765,-3.365 2.577,-4.882 3.072,-5.74 6.862,-11.739 12.346,-15.4665 4.434,-3.0142 9.518,-3.9131 14.753,-2.8168 5.226,1.0947 10.131,4.2943 13.045,8.7883 l 1.002,0.477 0.368,0.901 c 3.419,4.919 6.022,10.057 8.214,15.624 l 0.621,0.956 c 38.576,0.403 77.276,0.473 115.85,0.051 l -0.054,43.542 c 6.915,-0.039 26.008,-1.162 31.632,0.271 0.518,1.07 0.188,1.355 -0.181,2.451 0.672,1.75 0.901,3.42 0.159,5.213 -0.066,0.158 -0.142,0.312 -0.212,0.468 l -0.056,-1.029 c -4.12,-0.395 -8.318,0.124 -12.461,0.107 -8.539,-0.036 -24.258,-1.305 -31.838,0.23 l -0.928,-0.028 c -3.442,-1.129 -13.58,-0.503 -17.423,-0.08 l -0.861,-0.038 q -0.208,10.164 -0.149,20.329 l 63.567,-0.026 c 1.315,2.317 1.302,6.816 0.528,9.356 -0.112,0.367 -0.185,0.49 -0.354,0.862 0.24,0.999 0.248,1.649 0.011,2.65 -1.812,-1.174 -64.857,-0.511 -72.464,-0.369 -0.693,4.446 -0.134,8.915 -0.714,13.311 q -0.108,-6.713 -0.102,-13.427 l -77.114,0.024 c -2.761,5.725 -5.772,10.537 -10.579,14.786 l 7.307,0.008 c 6.554,0.019 13.349,0.425 19.876,0.025 3.034,-0.003 16.364,0.529 18.059,-0.842 l -0.179,-0.725 c -1.241,-0.171 -2.249,-0.241 -3.298,-0.993 -0.976,-1.45 -0.986,-2.957 -1.117,-4.647 0.07,-0.116 0.136,-0.235 0.21,-0.349 1.157,-1.794 2.382,-2.07 4.344,-2.489 1.226,1.133 1.66,1.766 1.678,3.488 0.015,1.45 -0.254,3.226 -0.725,4.601 0.101,0.419 0.192,1.421 0.548,1.631 1.363,0.804 3.904,0.387 5.473,0.304 0.046,2.798 0.128,5.596 -0.046,8.392 l -1.414,0.355 c -0.249,-2.36 -0.191,-4.803 -0.249,-7.178 -12.203,0.688 -24.701,0.139 -36.928,0.098 -4.278,-0.015 -9.525,-0.579 -13.708,0.143 -2.967,0.512 -5.988,2.114 -8.858,3.07 -4.27,1.423 -9.264,0.561 -13.178,-1.492 -11.353,-5.955 -16.719,-20.252 -20.328,-31.7 -2.09,-7.323 -3.076,-14.686 -3.929,-22.227 l -0.006,-0.683 c -1.07,-17.313 1.053,-33.798 7.123,-50.078 z"
     id="path83"
     style="fill:#28220b" />
  <path
     fill="#fefefe"
     d="m 402.759,159.514 c -0.151,-1.386 -0.334,-2.667 -0.063,-4.051 3.469,-0.629 74.304,-0.525 77.622,0.164 -0.501,4.728 -0.315,9.534 -0.277,14.283 l -15.474,0.212 c -3.688,-0.331 -18.416,0.789 -20.474,-0.259 -0.173,-1.251 -0.445,-1.999 0.096,-3.194 0.935,0.304 1.222,0.174 2.161,-0.033 1.045,-0.803 1.95,-1.855 2.155,-3.208 0.23,-1.519 -0.303,-2.181 -1.135,-3.333 -1.672,-0.95 -2.94,-0.722 -4.771,-0.49 -0.172,3.481 -0.059,7.02 -0.068,10.508 -13.442,-0.101 -26.882,0.049 -40.324,-0.193 q 0.336,-5.2 0.552,-10.406 z"
     id="path86" />
  <path
     fill="#fefefe"
     d="m 399.487,188.617 c 23.622,0.051 47.482,0.764 71.077,-0.053 l 10e-4,15.37 c -4.446,0.015 -9.05,0.286 -13.476,-0.014 -16.358,0.361 -32.924,0.382 -49.28,-0.017 l -3.696,0.104 -10.063,-0.068 c 2.163,-4.986 4.278,-9.991 5.437,-15.322 z"
     id="path88" />
  <path
     fill="#fefefe"
     d="m 401.021,138.668 97.4,-0.097 -0.03,15.024 0.037,16.354 -17.172,0.064 c 0.005,-5.063 -0.324,-10.383 0.32,-15.403 -2.047,-1.426 -10.163,-0.552 -12.912,-0.515 0.201,-3.062 0.423,-6.053 0.115,-9.117 -0.731,-0.447 -0.902,-0.324 -1.729,-0.223 0.478,0.998 1.081,2.175 1.179,3.285 0.124,1.409 -0.201,3.755 -1.207,4.806 -0.864,0.902 -1.992,1.221 -3.217,1.311 -5.903,0.437 -12.372,-0.16 -18.337,-0.152 l -43.125,0.119 c 0.098,-5.174 -0.69,-10.331 -1.322,-15.456 z"
     id="path92" />
  <path
     fill="#f5fafb"
     d="m 417.612,146.724 c 2.354,0.067 4.875,-0.165 6.835,1.187 l 0.216,2.523 c -0.672,0.455 -1.402,1.004 -2.152,1.318 -1.254,0.524 -1.903,0.242 -3.045,-0.269 -1.255,-1.508 -1.512,-2.865 -1.854,-4.759 z"
     id="path93" />
  <path
     fill="#fefefe"
     d="m 402.009,172.814 77.567,-0.035 0.648,0.154 q -0.208,10.164 -0.149,20.329 l 63.567,-0.026 c 1.315,2.317 1.302,6.816 0.528,9.356 -0.112,0.367 -0.185,0.49 -0.354,0.862 -2.161,1.538 -63.968,0.518 -72.029,0.509 l 0.058,-16.669 -72.033,0.058 c 1.231,-4.74 1.802,-9.668 2.197,-14.538 z"
     id="path95" />
  <path
     fill="#fefefe"
     d="m 396.597,121.775 c 38.576,0.403 77.276,0.473 115.85,0.051 l -0.054,43.542 c 6.915,-0.039 26.008,-1.162 31.632,0.271 0.518,1.07 0.188,1.355 -0.181,2.451 0.339,0.846 0.377,0.888 0.147,1.763 -4.352,1.138 -36.625,0.154 -44.372,0.088 q 0.186,-9.668 -0.058,-19.334 c 0.677,-4.119 0.196,-9.089 0.237,-13.307 l -99.223,0.06 c -0.745,-5.306 -2.469,-10.458 -3.978,-15.585 z"
     id="path96" />
  <path
     fill="#fefefe"
     d="m 341.594,189.723 c -2.76,-12.174 -4.049,-24.036 -3.332,-36.55 0.96,-16.743 5.21,-39.813 18.567,-51.515 3.795,-3.325 8.649,-5.7509 13.803,-5.3554 6.696,0.5138 11.627,5.1524 15.798,9.9504 14.67,22.53 17.475,52.932 11.941,78.869 -2.649,12.412 -8.083,28.691 -19.358,35.97 -3.961,2.557 -8.66,3.741 -13.321,2.719 -6.824,-1.496 -11.864,-7.28 -15.404,-12.969 -4.053,-6.512 -6.702,-13.745 -8.694,-21.119 z"
     id="path97" />
  <path
     fill="#fefefe"
     d="m 786.617,295.537 c 4.872,-0.561 10.044,-0.243 14.956,-0.236 l 26.099,0.02 86.664,0.003 c 0.208,0.386 0.423,0.818 0.514,1.249 0.672,3.177 0.118,7.694 0.114,10.975 l 0.003,26.419 -0.007,60.066 c -0.004,10.403 0.292,20.906 -0.06,31.299 -0.044,1.298 -0.204,2.227 -0.887,3.348 0.618,1.146 0.879,1.913 0.884,3.221 -0.244,0.197 -0.44,0.479 -0.733,0.59 -1.695,0.648 -113.486,0.05 -128.043,0.055 0.64,-1.044 0.766,-1.883 0.809,-3.083 0.364,-10.217 0.043,-20.564 0.046,-30.792 l -10e-4,-60.205 0.008,-28.495 c -10e-4,-4.562 0.544,-9.972 -0.366,-14.434 z"
     id="DataMem"
     inkscape:label="DataMem" />
  <path
     fill="#f5fafb"
     d="m 841.775,414.18 c 0.71,-0.073 1.429,-0.059 2.143,-0.07 l 0.948,1.356 c -0.119,1.588 -0.38,1.984 -1.245,3.253 -1.332,0.954 -2.538,0.845 -4.095,0.827 -0.778,-1.132 -1.148,-1.574 -1.283,-2.978 1.081,-1.442 1.912,-1.654 3.532,-2.388 z"
     id="path103" />
  <path
     fill="#fefefe"
     d="m 127.911,52.7823 c 5.385,0.3551 45.36,0.7872 48.738,-0.2347 l 0.341,-1.7735 c 1.78,-0.3286 4.716,1.6774 6.41,2.5014 l 0.03,1.083 c -0.338,6.0144 -0.306,12.1592 -0.118,18.1801 q 6.907,9.0858 13.634,18.3057 -6.781,9.1567 -13.658,18.2417 l -0.024,18.27 -5.551,-2.79 -0.682,0.365 -0.104,1.495 c -2.208,1.55 -8.139,0.139 -11.083,1.162 l 0.022,0.653 c 3.844,2.046 8.17,-0.664 12.231,2.411 1.756,-0.101 3.61,-1.359 5.147,-2.185 0.015,6.482 -0.134,13.008 0.055,19.485 q 18.255,-11.874 36.316,-24.042 c 6.996,-4.666 14.641,-9.108 21.138,-14.434 l 0.038,-17.7201 16.588,0.0201 0.028,63.162 c -12.358,-0.604 -24.767,0.2 -37.122,-0.275 l 0.005,119.089 -0.01,36.16 c 0,5.307 0.55,11.136 -0.02,16.383 -0.135,1.247 -1.126,2.953 -2.056,3.817 -1.025,0.953 -1.504,0.923 -2.815,0.913 -1.388,-0.85 -1.944,-1.721 -2.306,-3.267 -0.902,-3.857 -0.061,-9.089 -0.041,-13.107 l 0.005,-30.391 -54.513,0.028 c -9.599,-0.007 -19.423,-0.449 -28.999,0.123 l -1.693,-0.04 c 0.003,-1.295 -1.018,-2.628 -1.542,-3.796 -0.451,-1.007 -0.83,-1.443 -0.426,-2.524 l 1.765,-0.627 0.361,-1.407 c -0.946,-20.793 -0.109,-42.064 -0.108,-62.903 -5.743,-0.039 -11.481,-0.109 -17.22,0.141 -0.187,-1.094 -0.048,-2.248 0.009,-3.352 5.332,0.754 11.764,0.135 17.205,0.119 z"
     id="path104" />
  <path
     fill="#e60601"
     d="m 128,276.017 1.517,-1.338 0.245,2.713 2.093,0.917 c 0.06,2.319 -2.055,3.923 -2.32,6.102 l -1.693,-0.04 c 0.003,-1.295 -1.018,-2.628 -1.542,-3.796 -0.451,-1.007 -0.83,-1.443 -0.426,-2.524 l 1.765,-0.627 z"
     id="path105" />
  <path
     fill="#e60601"
     d="m 127.911,52.7823 c 5.385,0.3551 45.36,0.7872 48.738,-0.2347 l 0.341,-1.7735 c 1.78,-0.3286 4.716,1.6774 6.41,2.5014 l 0.03,1.083 c -1.478,0.7147 -4.825,2.8769 -6.31,2.6353 l -0.62,-1.9672 c -3.845,-1.2325 -39.756,-0.2993 -46.879,-0.2889 l 0.038,146.0853 0.004,47.754 c -0.001,8.659 0.317,17.458 -0.146,26.102 L 128,276.017 c -0.946,-20.793 -0.109,-42.064 -0.108,-62.903 -5.743,-0.039 -11.481,-0.109 -17.22,0.141 -0.187,-1.094 -0.048,-2.248 0.009,-3.352 5.332,0.754 11.764,0.135 17.205,0.119 z"
     id="path106" />
  <path
     fill="#fefefe"
     d="m 18.2131,295.189 c 5.6272,0.104 11.277,0.009 16.9064,0.004 -0.59,27.869 -0.1083,55.847 -0.1258,83.729 30.801,-0.621 61.6739,0.128 92.4873,-0.163 0.723,-0.118 1.476,-0.358 2.164,-0.029 l 0.128,0.428 c 0.53,1.753 2.222,4.158 1.954,5.816 l -1.745,0.452 c -1.249,4.432 -0.323,26.908 -0.325,33.874 l 0.012,101.184 c 27.265,-0.863 54.747,-0.158 82.032,-0.149 l 154.009,0.009 476.722,-0.013 174.608,0.007 55.51,0.006 c 8.81,-0.003 18.06,0.636 26.8,-0.083 l -0.09,1.644 c 1.03,2.477 0.97,4.442 0.02,6.935 -36.37,0.953 -72.97,0.086 -109.36,0.084 L 777.259,528.92 18.2425,529.009 Z"
     id="path107" />
  <path
     fill="#e60601"
     d="m 127.481,378.759 c 0.723,-0.118 1.476,-0.358 2.164,-0.029 l 0.128,0.428 c 0.53,1.753 2.222,4.158 1.954,5.816 l -1.745,0.452 c -1.249,4.432 -0.323,26.908 -0.325,33.874 l 0.012,101.184 c 27.265,-0.863 54.747,-0.158 82.032,-0.149 l 154.009,0.009 476.722,-0.013 174.608,0.007 55.51,0.006 c 8.81,-0.003 18.06,0.636 26.8,-0.083 l -0.09,1.644 c -9.88,0.394 -19.85,0.13 -29.75,0.125 l -52.74,-0.019 H 856.322 l -488.397,0.008 -158.644,-0.021 -50.507,-0.009 c -10.263,-0.005 -20.641,-0.353 -30.882,0.342 0.001,-13.811 0.819,-134.085 -0.324,-136.927 l -2.034,-0.494 c -0.384,-1.757 2.064,-3.901 1.947,-6.151 z"
     id="path108" />
  <path
     fill="#fefefe"
     d="m 347.027,230.68 164.936,-0.083 -0.025,201.968 c -54.944,-0.698 -109.978,-0.057 -164.932,-0.067 0.764,-67.24 0.081,-134.569 0.021,-201.818 z"
     id="Register"
     inkscape:label="Register" />
  <path
     fill="#f5fafb"
     d="m 398.287,322.783 c 0.912,-0.009 1.875,0.161 2.646,0.687 1.378,0.94 1.484,1.622 1.835,3.144 l -1.061,1.666 c -0.965,0.047 -1.971,0.126 -2.935,0.06 -1.333,-0.093 -1.773,-0.319 -2.599,-1.278 0.008,-1.743 1.124,-2.943 2.114,-4.279 z"
     id="path110" />
  <path
     fill="#f5fafb"
     d="m 454.714,344.239 c 1.124,0.663 1.046,0.927 1.461,2.119 -0.133,0.659 -0.263,1.425 -0.669,1.975 -1.194,1.618 -2.47,1.482 -4.321,1.829 -0.187,-0.146 -0.377,-0.287 -0.554,-0.443 -1.079,-0.95 -1.209,-1.323 -1.272,-2.693 1.116,-1.681 3.497,-2.27 5.355,-2.787 z"
     id="path111" />
  <path
     fill="#f5fafb"
     d="m 496.059,344.009 0.724,0.483 c 0.714,1.574 0.87,1.742 0.353,3.485 -1.663,1.784 -2.961,1.92 -5.24,2.394 -0.056,-0.08 -0.115,-0.157 -0.166,-0.239 -0.94,-1.494 -0.996,-1.958 -0.584,-3.603 1.285,-1.456 3.134,-1.905 4.913,-2.52 z"
     id="path112" />
  <path
     fill="#f5fafb"
     d="m 376.201,325.625 c 0.917,0.199 1.126,0.733 1.711,1.445 -0.286,1.129 -0.373,2.022 -1.181,2.907 -1.475,1.614 -3.017,1.524 -5.065,1.599 -0.69,-1.401 -1.018,-1.783 -0.743,-3.376 1.246,-1.502 3.48,-1.976 5.278,-2.575 z"
     id="path113" />
  <path
     fill="#f5fafb"
     d="m 483.623,288.582 0.636,0.138 c 0.587,0.646 0.918,0.834 0.974,1.768 0.062,1.024 -0.368,2.05 -1.06,2.796 -1.486,1.603 -3.302,1.145 -5.274,1.115 -0.529,-1.239 -0.823,-1.681 -0.592,-3.048 1.174,-1.594 3.51,-2.126 5.316,-2.769 z"
     id="path114" />
  <path
     fill="#f5fafb"
     d="m 483.728,343.424 0.708,0.262 c 0.202,0.558 0.433,1.158 0.5,1.751 0.139,1.242 0.003,2.59 -0.981,3.473 -1.39,1.248 -3.458,0.847 -5.182,0.844 -0.398,-0.961 -0.486,-1.696 -0.522,-2.731 1.391,-1.969 3.402,-2.038 5.276,-3.441 0.068,-0.051 0.134,-0.106 0.201,-0.158 z"
     id="path115" />
  <path
     fill="#f5fafb"
     d="m 406.625,322.965 2.611,0.623 c 0.541,0.434 0.991,0.87 1.285,1.513 0.579,1.267 0.599,2.515 0.122,3.826 -0.716,1.967 -1.321,2.014 -3.145,2.884 -0.601,-0.289 -1.213,-0.574 -1.758,-0.964 -0.83,-0.594 -1.447,-1.654 -1.565,-2.666 -0.253,-2.166 1.115,-3.717 2.45,-5.216 z"
     id="path116" />
  <path
     fill="#f5fafb"
     d="m 406.167,267.578 c 0.988,-0.033 1.957,-0.107 2.914,0.197 0.796,0.254 1.074,0.908 1.416,1.654 0.742,1.618 0.658,3.163 0.037,4.791 -0.552,1.451 -1.005,1.477 -2.318,2.079 -0.759,-0.094 -1.377,-0.332 -2.012,-0.772 -0.975,-0.674 -1.722,-1.702 -1.913,-2.882 -0.354,-2.179 0.62,-3.46 1.876,-5.067 z"
     id="path117" />
  <path
     fill="#fefefe"
     d="m 989.889,383.289 25.971,0.011 c 0.62,1.028 0.81,1.853 0.86,3.053 0.38,9.512 0.06,19.162 0.07,28.686 v 54.886 c 0,5.744 0.82,31.54 -0.27,35.522 -0.12,0.447 -0.33,0.86 -0.58,1.251 l -696.478,-0.017 -0.065,-12.242 165.724,0.04 54.491,-10e-4 c 9.349,-0.001 18.913,0.383 28.241,-0.102 0.223,-0.255 0.187,-1.118 0.219,-1.482 l -2.11,-0.132 c 0.018,-0.355 0.14,-0.72 0.053,-1.064 -0.15,-0.593 -1.341,-1.95 -1.702,-2.532 -2.897,-4.667 -4.915,-8.61 -5.673,-14.107 q -0.119,-0.801 -0.197,-1.607 -0.078,-0.806 -0.116,-1.614 -0.038,-0.809 -0.036,-1.619 0.003,-0.809 0.046,-1.618 0.043,-0.808 0.126,-1.614 0.084,-0.805 0.207,-1.605 0.124,-0.8 0.287,-1.593 0.164,-0.793 0.366,-1.577 0.203,-0.784 0.445,-1.557 0.242,-0.772 0.522,-1.532 0.28,-0.76 0.598,-1.505 0.318,-0.744 0.673,-1.472 0.354,-0.728 0.745,-1.437 0.391,-0.71 0.816,-1.399 0.426,-0.688 0.885,-1.355 0.46,-0.667 0.952,-1.31 c 6.289,-8.233 14.402,-11.989 24.498,-13.365 0.164,-0.314 0.178,-0.325 0.33,-0.699 1.095,-2.689 0.976,-17.713 -0.287,-20.555 0.901,-0.068 2.02,-0.31 2.87,0 q 24.734,-0.286 49.47,-0.125 c 2.034,-0.103 4.303,-0.419 6.277,0.131 20.658,-0.442 41.359,-0.141 62.024,-0.16 0.481,0.76 0.733,1.413 0.817,2.306 0.482,5.092 0.816,38.639 -0.19,42.522 -0.126,0.486 -0.344,0.938 -0.593,1.372 l 156.768,-0.061 c 25.433,0.002 51.177,0.863 76.567,-0.093 0.402,-0.788 0.687,-1.538 0.748,-2.428 0.47,-6.824 0.803,-57.799 -0.197,-61.121 -0.129,-0.429 -0.345,-0.815 -0.595,-1.184 l 26.231,-0.041 c 0.041,0.071 0.085,0.14 0.123,0.211 2.238,4.204 -0.418,6.434 3.962,10.872 1.284,1.3 2.844,2.512 4.606,3.073 1.922,0.611 3.834,0.316 5.589,-0.633 3.166,-1.712 5.347,-4.873 6.309,-8.29 1.166,-4.141 1.756,-15.198 -0.23,-18.812 -0.052,-0.094 -0.112,-0.184 -0.167,-0.276 z"
     id="path118" />
  <path
     fill="#13b0e3"
     d="m 641.84,415.901 c 2.034,-0.103 4.303,-0.419 6.277,0.131 1.274,5.607 0.519,12.757 0.52,18.541 l -0.021,36.703 -0.391,10e-4 c -1.653,0.699 -3.145,0.675 -4.908,0.68 q -9.385,-0.213 -18.772,-0.098 c 0.26,2.375 0.152,5.386 -1.277,7.415 -0.054,0.077 -0.119,0.145 -0.179,0.218 0.527,2.284 -1.742,6.588 -2.92,8.496 -4.548,7.364 -13.046,12.982 -21.418,14.864 -8.67,1.949 -16.615,0.808 -24.135,-4.036 -2.157,-1.389 -4.405,-3.502 -6.763,-4.44 0.223,-0.255 0.187,-1.118 0.219,-1.482 l -2.11,-0.132 c 0.018,-0.355 0.14,-0.72 0.053,-1.064 -0.15,-0.593 -1.341,-1.95 -1.702,-2.532 -2.897,-4.667 -4.915,-8.61 -5.673,-14.107 q -0.119,-0.801 -0.197,-1.607 -0.078,-0.806 -0.116,-1.614 -0.038,-0.809 -0.036,-1.619 0.003,-0.809 0.046,-1.618 0.043,-0.808 0.126,-1.614 0.084,-0.805 0.207,-1.605 0.124,-0.8 0.287,-1.593 0.164,-0.793 0.366,-1.577 0.203,-0.784 0.445,-1.557 0.242,-0.772 0.522,-1.532 0.28,-0.76 0.598,-1.505 0.318,-0.744 0.673,-1.472 0.354,-0.728 0.745,-1.437 0.391,-0.71 0.816,-1.399 0.426,-0.688 0.885,-1.355 0.46,-0.667 0.952,-1.31 c 6.289,-8.233 14.402,-11.989 24.498,-13.365 0.164,-0.314 0.178,-0.325 0.33,-0.699 1.095,-2.689 0.976,-17.713 -0.287,-20.555 0.901,-0.068 2.02,-0.31 2.87,0 q 24.734,-0.286 49.47,-0.125 z"
     id="path122" />
  <path
     fill="#fefefe"
     d="m 592.37,416.026 q 24.734,-0.286 49.47,-0.125 c 1.486,0.099 2.594,-0.099 3.782,0.855 0.408,6.728 1.147,48.537 -0.696,51.978 -2.448,1.17 -17.285,0.256 -20.821,0.159 1.181,-2.185 0.124,-5.957 -0.549,-8.268 -0.802,-2.759 -2.322,-7.091 -4.92,-8.501 -0.076,-1.686 -1.424,-3.066 -2.506,-4.272 -6.216,-6.931 -14.79,-10.078 -23.887,-10.637 0.05,-0.088 0.104,-0.173 0.151,-0.263 1.367,-2.638 1.057,-17.714 -0.024,-20.926 z"
     id="path123" />
  <path
     fill="#fefefe"
     d="m 568.689,492.596 c -1.956,-3.01 -4.135,-6.024 -5.681,-9.269 -3.399,-7.137 -3.679,-16.099 -1.034,-23.521 2.762,-7.754 8.915,-14.302 16.354,-17.773 7.767,-3.625 17.002,-3.786 25.004,-0.82 5.221,1.936 11.533,6.094 13.911,11.291 4.823,5.904 6.302,14 5.542,21.447 -0.845,8.287 -4.865,15.561 -11.334,20.797 q -0.603,0.494 -1.229,0.958 -0.626,0.464 -1.275,0.896 -0.648,0.432 -1.318,0.831 -0.669,0.4 -1.357,0.765 -0.689,0.366 -1.394,0.697 -0.706,0.33 -1.427,0.626 -0.722,0.295 -1.457,0.554 -0.735,0.26 -1.482,0.482 -0.747,0.222 -1.504,0.407 -0.757,0.185 -1.523,0.332 -0.765,0.147 -1.537,0.256 -0.772,0.109 -1.548,0.179 -0.776,0.071 -1.555,0.102 -0.779,0.032 -1.558,0.025 -0.78,-0.007 -1.558,-0.053 -0.778,-0.046 -1.553,-0.13 c -8.286,-0.929 -12.734,-4.921 -19.487,-9.079 z"
     id="Alucont"
     inkscape:label="Alucont" />
  <path
     fill="#fefefe"
     d="M 18.4737,12.9704 877.219,12.9536 c 0.177,0.2707 0.332,0.5429 0.441,0.8501 0.864,2.4436 0.735,41.2738 -0.489,43.6834 l -26.035,-0.017 c 0.22,-0.3363 0.451,-0.7167 0.563,-1.1055 1.491,-5.2008 0.92,-17.4999 -1.951,-22.0682 -1.947,-3.0989 -4.513,-3.9296 -7.934,-4.7456 0.676,-3.8844 1.009,-9.5768 -0.301,-13.3207 l -233.283,0.018 -67.808,-0.002 c -8.756,-0.0014 -21.146,-1.0141 -29.444,0.0867 -4.246,0.5633 -1.948,1.715 -3.894,3.6051 -5.604,1.3065 -12.245,0.5644 -18.009,0.465 -0.343,9.2481 -0.109,18.5771 -0.12,27.8347 -26.482,-0.5773 -53.096,-0.0753 -79.591,-0.0238 -0.895,-6.0484 -2.192,-11.4169 -5.974,-16.3746 q -0.419,-0.5602 -0.866,-1.099 -0.447,-0.5388 -0.92,-1.0549 -0.472,-0.516 -0.97,-1.008 -0.498,-0.4921 -1.02,-0.9589 -0.521,-0.4668 -1.065,-0.9073 -0.544,-0.4404 -1.109,-0.8534 -0.565,-0.4131 -1.15,-0.7976 -0.585,-0.3846 -1.188,-0.7398 -0.603,-0.3552 -1.224,-0.6801 -0.62,-0.3249 -1.255,-0.6188 -0.635,-0.2938 -1.284,-0.5559 -0.65,-0.2621 -1.311,-0.4918 -0.661,-0.2296 -1.333,-0.4263 -0.672,-0.1967 -1.353,-0.36 -0.68,-0.1632 -1.368,-0.2925 -0.688,-0.1294 -1.382,-0.2246 c -7.508,-0.9988 -15.168,0.8139 -21.21,5.4594 -7.447,5.7257 -10.398,12.9986 -11.532,21.979 l -94.473,-2e-4 0.016,41.8442 -16.657,0.0451 0.076,-17.8933 -0.352,-0.3159 c -4.117,-3.6253 -9.382,-6.5794 -13.963,-9.6355 l -27.073,-18.024 c -3.358,-2.2305 -10.922,-8.044 -14.149,-9.4284 -0.146,-0.0628 -0.891,0.0624 -1.095,0.0767 -2.248,3.1593 -0.897,14.4413 -0.78,18.3981 -1.694,-0.824 -4.63,-2.83 -6.41,-2.5014 l -0.341,1.7735 c -3.378,1.0219 -43.353,0.5898 -48.738,0.2347 l -0.025,157.2397 c -5.441,0.016 -11.873,0.635 -17.205,-0.119 0.789,-5.899 0.377,-12.211 0.377,-18.163 -25.2549,0.626 -50.7257,0.228 -75.9953,-0.014 l -0.0174,18.865 c -0.9792,-0.549 -1.9642,-1.101 -2.9787,-1.584 -0.9594,-0.456 -1.7256,-0.537 -2.7379,-0.164 -3.7376,1.378 -6.9813,1.394 -10.9126,1.381 0.3338,-22.633 0.0505,-45.311 0.052,-67.949 z"
     id="path130" />
  <path
     fill="#fefefe"
     d="m 1099.26,332.336 c 0.53,1.162 0.67,2.102 0.71,3.371 0.35,13.393 0.05,26.865 0.05,40.268 v 77.207 c 0,10.197 1.12,61.757 -0.67,67.079 -8.74,0.719 -17.99,0.08 -26.8,0.083 l -55.51,-0.006 -174.608,-0.007 -476.722,0.013 -154.009,-0.009 c -27.285,-0.009 -54.767,-0.714 -82.032,0.149 L 129.657,419.3 c 0.002,-6.966 -0.924,-29.442 0.325,-33.874 l 1.745,-0.452 c 0.268,-1.658 -1.424,-4.063 -1.954,-5.816 l -0.128,-0.428 c 27.773,0.609 55.658,0.199 83.442,0.081 l -0.062,-29.391 c -0.007,-5.313 -0.648,-11.817 0.436,-17.007 l 1.607,-0.383 c 2.193,0.447 3.6,1.785 5.249,3.189 l -0.055,159.265 c 32.486,-0.339 65.008,-0.022 97.497,-0.027 l -0.246,13.909 c 30.91,-0.378 61.868,-0.044 92.783,-0.045 l 178.496,-0.003 428.778,0.049 c 0.29,-0.483 0.53,-0.983 0.68,-1.53 1.12,-4.274 0.22,-29.648 0.23,-35.575 v -57.046 c -0.01,-9.771 0.31,-19.666 -0.06,-29.425 -0.05,-1.248 -0.26,-2.134 -0.91,-3.214 -9.15,0.348 -18.414,0.061 -27.574,0.074 0.249,-0.441 0.5,-0.925 0.627,-1.417 1.452,-5.619 1.265,-16.99 -1.906,-21.929 -1.961,-3.055 -4.562,-3.881 -7.964,-4.652 0.812,-4.73 1.785,-17.251 -0.437,-21.304 z"
     id="path131" />
  <path
     fill="#fefefe"
     d="m 0,0 h 1099.06 c 0.49,0.765327 0.76,1.43246 0.84,2.33642 0.66,7.10295 0.1,14.79298 0.1,21.94448 l 0.01,44.9577 0.01,143.7564 v 79.062 c -0.01,5.847 0.87,23.161 -0.2,27.875 -0.13,0.543 -0.32,1.063 -0.52,1.58 -10.69,-1.145 -26.63,-0.138 -37.89,-0.133 h -80.948 c 0.124,-0.32 0.225,-0.62 0.314,-0.951 1.312,-4.874 0.401,-32.1 0.402,-39.154 l 0.002,-57.157 c -0.002,-9.656 0.286,-19.413 -0.034,-29.059 -0.037,-1.127 -0.219,-1.902 -0.802,-2.894 -30.928,0.485 -61.932,0.039 -92.87,0.063 0.329,-0.51 0.609,-1.053 0.736,-1.651 0.643,-3.026 0.982,-9.721 -0.604,-12.333 L 716.34,178.28 c 0.325,-0.518 0.606,-1.067 0.71,-1.675 0.662,-3.84 0.996,-22.424 -0.751,-25.161 q 8.751,0.021 17.501,-0.051 c 0.278,0.43 0.491,0.857 0.648,1.347 0.806,2.503 0.404,5.737 -0.752,8.047 5.143,-0.102 10.813,0.315 15.83,-0.947 5.124,-1.289 8.971,-4.458 11.597,-8.995 1.557,-2.69 2.597,-5.5 1.776,-8.6 l 32.151,0.066 c 2.06,-3.555 0.877,-30.927 0.62,-36.71 2.021,-0.287 3.882,-0.857 5.588,-2.002 1.465,-0.983 2.833,-2.476 3.177,-4.2454 0.172,-0.3892 0.337,-0.7766 0.476,-1.1789 1.241,-3.5792 1.45,-21.7953 -0.135,-25.143 l 25.995,-0.0264 c 1.467,2.3207 0.487,5.7109 1.842,8.2945 1.267,2.4159 4.363,5.1911 6.986,6.0118 1.965,0.6147 3.905,0.2211 5.662,-0.7899 3.25,-1.8697 5.393,-5.2165 6.255,-8.8088 0.926,-3.8618 1.637,-15.1349 -0.452,-18.5381 q 13.888,-0.0683 27.775,0.0587 c 0.304,-0.4714 0.561,-0.9781 0.669,-1.5334 0.895,-4.6115 0.617,-38.7308 0.102,-44.3079 -0.084,-0.9096 -0.341,-1.5839 -0.822,-2.3623 L 16.6858,11.1236 c 0.3735,25.8097 0.0489,51.6717 0.0511,77.4864 l -0.0682,123.424 c 3.2579,-0.035 8.8903,-0.822 11.8295,0.36 l 0.474,1.988 c 1.3209,0.249 4.7297,-1.926 6.0812,-2.584 l -0.0465,18.928 c 25.2813,-0.698 50.7755,-0.076 76.0771,-0.014 -0.008,-5.818 0.089,-11.656 -0.412,-17.457 5.739,-0.25 11.477,-0.18 17.22,-0.141 -10e-4,20.839 -0.838,42.11 0.108,62.903 l -0.361,1.407 -1.765,0.627 c -0.404,1.081 -0.025,1.517 0.426,2.524 0.524,1.168 1.545,2.501 1.542,3.796 l -92.8241,-0.131 0.1156,9.584 c -6.0949,-0.022 -12.2445,0.119 -18.3322,-0.107 0.0325,78.924 0.7816,157.935 -0.0417,236.85 27.9555,-0.613 56.016,-0.131 83.9804,-0.128 l 155.622,0.019 561.5,0.004 187.308,-0.002 c 31.34,0 62.81,0.597 94.15,-0.03 0.87,2.312 1.17,5.551 0.14,7.865 -0.14,0.313 -0.21,0.388 -0.4,0.705 H 0 Z"
     id="path132" />
  <text
     xml:space="preserve"
     style="text-align:start;writing-mode:lr-tb;direction:ltr;text-anchor:start;fill:none"
     x="77.366669"
     y="325.23334"
     id="text133"><tspan
       sodipodi:role="line"
       id="tspan133"
       x="77.366669"
       y="325.23334">PC</tspan></text>
  <text
     xml:space="preserve"
     style="text-align:start;writing-mode:lr-tb;direction:ltr;text-anchor:start;fill:none"
     x="119.53333"
     y="331.46667"
     id="text135"><tspan
       sodipodi:role="line"
       id="tspan135"
       x="119.53333"
       y="331.46667">PC</tspan><tspan
       sodipodi:role="line"
       x="119.53333"
       y="346.46667"
       id="tspan136" /></text>
  <text
     xml:space="preserve"
     style="text-align:start;writing-mode:lr-tb;direction:ltr;text-anchor:start;fill:#000000"
     x="64.299576"
     y="213.64053"
     id="text137"><tspan
       sodipodi:role="line"
       id="tspan137"
       x="64.299576"
       y="213.64053">PC</tspan><tspan
       sodipodi:role="line"
       x="64.299576"
       y="228.64053"
       id="tspan138" /></text>
  <text
     xml:space="preserve"
     style="text-align:start;writing-mode:lr-tb;direction:ltr;text-anchor:start;fill:#000000"
     x="91.263916"
     y="326.9426"
     id="text139"><tspan
       sodipodi:role="line"
       id="tspan139"
       x="91.263916"
       y="326.9426">Instruction</tspan><tspan
       sodipodi:role="line"
       x="91.263916"
       y="341.9426"
       id="tspan140">Memory</tspan></text>
  <text
     xml:space="preserve"
     style="text-align:start;writing-mode:lr-tb;direction:ltr;text-anchor:start;fill:#000000"
     x="207.93654"
     y="89.708275"
     id="text141"><tspan
       sodipodi:role="line"
       id="tspan141"
       x="207.93654"
       y="89.708275">ALU</tspan><tspan
       sodipodi:role="line"
       x="207.93654"
       y="104.70827"
       id="tspan142">+</tspan></text>
  <text
     xml:space="preserve"
     style="text-align:start;writing-mode:lr-tb;direction:ltr;text-anchor:start;fill:#000000"
     x="642.18097"
     y="91.157944"
     id="text141-8"><tspan
       sodipodi:role="line"
       id="tspan141-2"
       x="642.18097"
       y="91.157944">ALU</tspan><tspan
       sodipodi:role="line"
       x="642.18097"
       y="106.15794"
       id="tspan142-4">+</tspan></text>
  <text
     xml:space="preserve"
     style="font-size:8px;text-align:start;writing-mode:lr-tb;direction:ltr;text-anchor:start;fill:#000000"
     x="372.57455"
     y="43.039234"
     id="text143"><tspan
       sodipodi:role="line"
       id="tspan143"
       x="372.57455"
       y="43.039234">Shift</tspan><tspan
       sodipodi:role="line"
       x="372.57455"
       y="53.039234"
       id="tspan144">Left</tspan><tspan
       sodipodi:role="line"
       x="372.57455"
       y="63.039234"
       id="tspan145">2</tspan></text>
  <text
     xml:space="preserve"
     style="font-size:8px;text-align:start;writing-mode:lr-tb;direction:ltr;text-anchor:start;fill:#000000"
     x="539.90991"
     y="119.75052"
     id="text143-0"><tspan
       sodipodi:role="line"
       id="tspan143-9"
       x="539.90991"
       y="119.75052">Shift</tspan><tspan
       sodipodi:role="line"
       x="539.90991"
       y="129.75052"
       id="tspan144-4">Left</tspan><tspan
       sodipodi:role="line"
       x="539.90991"
       y="139.75052"
       id="tspan145-8">2</tspan></text>
  <text
     xml:space="preserve"
     style="font-size:8px;text-align:start;writing-mode:lr-tb;direction:ltr;text-anchor:start;fill:#000000"
     x="355.72183"
     y="162.56386"
     id="text146"><tspan
       sodipodi:role="line"
       id="tspan146"
       x="355.72183"
       y="162.56386">Control</tspan></text>
  <text
     xml:space="preserve"
     style="font-size:12px;text-align:start;writing-mode:lr-tb;direction:ltr;text-anchor:start;fill:#000000"
     x="401.13333"
     y="327.79999"
     id="text147"><tspan
       sodipodi:role="line"
       id="tspan147"
       x="401.13333"
       y="327.79999">Register</tspan></text>
  <text
     xml:space="preserve"
     style="font-size:12px;text-align:start;writing-mode:lr-tb;direction:ltr;text-anchor:start;fill:#000000"
     x="389.03336"
     y="467.86664"
     id="text148"><tspan
       sodipodi:role="line"
       id="tspan148"
       x="389.03336"
       y="467.86664">Sign Extend</tspan></text>
  <text
     xml:space="preserve"
     style="font-size:12px;text-align:start;writing-mode:lr-tb;direction:ltr;text-anchor:start;fill:#000000"
     x="634.33337"
     y="318.63333"
     id="text149"><tspan
       sodipodi:role="line"
       id="tspan149"
       x="634.33337"
       y="318.63333">Alu</tspan><tspan
       sodipodi:role="line"
       x="634.33337"
       y="333.63333"
       id="tspan150">  +</tspan><tspan
       sodipodi:role="line"
       x="634.33337"
       y="348.63333"
       id="tspan151">  Result</tspan></text>
  <text
     xml:space="preserve"
     style="font-size:12px;text-align:start;writing-mode:lr-tb;direction:ltr;text-anchor:start;fill:#000000"
     x="573.46667"
     y="465.30002"
     id="text152"><tspan
       sodipodi:role="line"
       id="tspan152"
       x="573.46667"
       y="465.30002">ALU</tspan><tspan
       sodipodi:role="line"
       x="573.46667"
       y="480.30002"
       id="tspan153">Control</tspan></text>
  <path
     style="fill:#000000;stroke-width:3.45433"
     d="m 574.88345,288.21652 c -1.94636,49.6588 -6.81241,49.96788 -6.81241,49.96788"
     id="path155" />
  <text
     xml:space="preserve"
     style="font-size:12px;text-align:start;writing-mode:lr-tb;direction:ltr;text-anchor:start;fill:#000000"
     x="807.37451"
     y="353.12912"
     id="text155"><tspan
       sodipodi:role="line"
       id="tspan155"
       x="807.37451"
       y="353.12912">Data Memory</tspan></text>
</svg>
